MVBoli.ufo
<glyph name="exclam" format="1">
  <advance width="745"/>
  <unicode hex="0021"/>
  <outline>
    <contour>
      <point x="807" y="1405" type="qcurve" smooth="yes"/>
      <point x="807" y="1363"/>
      <point x="766" y="1278" type="qcurve" smooth="yes"/>
      <point x="735" y="1213"/>
      <point x="552" y="724"/>
      <point x="512" y="608"/>
      <point x="496" y="524" type="qcurve" smooth="yes"/>
      <point x="483" y="459"/>
      <point x="406" y="459" type="qcurve" smooth="yes"/>
      <point x="307" y="459"/>
      <point x="307" y="557" type="qcurve" smooth="yes"/>
      <point x="307" y="660"/>
      <point x="552" y="1245"/>
      <point x="684" y="1462"/>
      <point x="745" y="1462" type="qcurve" smooth="yes"/>
      <point x="807" y="1462"/>
    </contour>
    <contour>
      <point x="475" y="162" type="qcurve" smooth="yes"/>
      <point x="475" y="93"/>
      <point x="369" y="-8"/>
      <point x="301" y="-8" type="qcurve" smooth="yes"/>
      <point x="249" y="-8"/>
      <point x="176" y="65"/>
      <point x="176" y="117" type="qcurve" smooth="yes"/>
      <point x="176" y="186"/>
      <point x="287" y="291"/>
      <point x="354" y="291" type="qcurve" smooth="yes"/>
      <point x="406" y="291"/>
      <point x="475" y="217"/>
    </contour>
  </outline>
</glyph>
<glyph name="quotedbl" format="1">
  <advance width="928"/>
  <unicode hex="0022"/>
  <outline>
    <contour>
      <point x="631" y="1401" type="qcurve" smooth="yes"/>
      <point x="631" y="1380"/>
      <point x="592" y="1298" type="qcurve" smooth="yes"/>
      <point x="507" y="1129"/>
      <point x="444" y="887" type="qcurve" smooth="yes"/>
      <point x="429" y="823"/>
      <point x="346" y="823" type="qcurve" smooth="yes"/>
      <point x="248" y="823"/>
      <point x="248" y="909" type="qcurve" smooth="yes"/>
      <point x="248" y="978"/>
      <point x="483" y="1466"/>
      <point x="553" y="1466" type="qcurve" smooth="yes"/>
      <point x="631" y="1466"/>
    </contour>
    <contour>
      <point x="1081" y="1401" type="qcurve" smooth="yes"/>
      <point x="1081" y="1376"/>
      <point x="1042" y="1298" type="qcurve" smooth="yes"/>
      <point x="958" y="1129"/>
      <point x="895" y="887" type="qcurve" smooth="yes"/>
      <point x="879" y="823"/>
      <point x="797" y="823" type="qcurve" smooth="yes"/>
      <point x="698" y="823"/>
      <point x="698" y="909" type="qcurve" smooth="yes"/>
      <point x="698" y="978"/>
      <point x="933" y="1466"/>
      <point x="1004" y="1466" type="qcurve" smooth="yes"/>
      <point x="1081" y="1466"/>
    </contour>
  </outline>
</glyph>
<glyph name="numbersign" format="1">
  <advance width="1407"/>
  <unicode hex="0023"/>
  <outline>
    <contour>
      <point x="504" y="881" type="qcurve"/>
      <point x="365" y="860"/>
      <point x="336" y="860" type="qcurve" smooth="yes"/>
      <point x="238" y="860"/>
      <point x="238" y="928" type="qcurve" smooth="yes"/>
      <point x="238" y="984"/>
      <point x="349" y="1027"/>
      <point x="567" y="1038" type="qcurve"/>
      <point x="643" y="1229"/>
      <point x="775" y="1462"/>
      <point x="831" y="1462" type="qcurve" smooth="yes"/>
      <point x="877" y="1462"/>
      <point x="877" y="1438" type="qcurve" smooth="yes"/>
      <point x="877" y="1402"/>
      <point x="856" y="1343"/>
      <point x="823" y="1274" type="qcurve" smooth="yes"/>
      <point x="784" y="1191"/>
      <point x="727" y="1049" type="qcurve"/>
      <point x="955" y="1057"/>
      <point x="1073" y="1057" type="qcurve"/>
      <point x="1188" y="1335"/>
      <point x="1289" y="1464"/>
      <point x="1327" y="1464" type="qcurve" smooth="yes"/>
      <point x="1384" y="1464"/>
      <point x="1384" y="1423" type="qcurve" smooth="yes"/>
      <point x="1384" y="1407"/>
      <point x="1298" y="1223"/>
      <point x="1233" y="1061" type="qcurve"/>
      <point x="1364" y="1061" type="line" smooth="yes"/>
      <point x="1454" y="1061"/>
      <point x="1454" y="987" type="qcurve" smooth="yes"/>
      <point x="1454" y="938"/>
      <point x="1356" y="903"/>
      <point x="1249" y="903" type="qcurve" smooth="yes"/>
      <point x="1176" y="903" type="line"/>
      <point x="1131" y="784"/>
      <point x="1067" y="573" type="qcurve"/>
      <point x="1148" y="575"/>
      <point x="1288" y="575" type="qcurve" smooth="yes"/>
      <point x="1366" y="575"/>
      <point x="1366" y="502" type="qcurve" smooth="yes"/>
      <point x="1366" y="418"/>
      <point x="1253" y="418" type="qcurve" smooth="yes"/>
      <point x="1107" y="418"/>
      <point x="1024" y="416" type="qcurve"/>
      <point x="973" y="225"/>
      <point x="948" y="68" type="qcurve" smooth="yes"/>
      <point x="938" y="-2"/>
      <point x="862" y="-2" type="qcurve" smooth="yes"/>
      <point x="823" y="-2"/>
      <point x="774" y="44"/>
      <point x="774" y="80" type="qcurve" smooth="yes"/>
      <point x="774" y="176"/>
      <point x="844" y="414" type="qcurve"/>
      <point x="516" y="408" type="line"/>
      <point x="463" y="224"/>
      <point x="432" y="66" type="qcurve" smooth="yes"/>
      <point x="427" y="36"/>
      <point x="359" y="-2"/>
      <point x="326" y="-2" type="qcurve" smooth="yes"/>
      <point x="252" y="-2"/>
      <point x="252" y="76" type="qcurve" smooth="yes"/>
      <point x="252" y="136"/>
      <point x="334" y="399" type="qcurve"/>
      <point x="158" y="385" type="line"/>
      <point x="100" y="385"/>
      <point x="100" y="477" type="qcurve" smooth="yes"/>
      <point x="100" y="513"/>
      <point x="193" y="553"/>
      <point x="387" y="559" type="qcurve"/>
      <point x="468" y="798"/>
    </contour>
    <contour>
      <point x="1012" y="901" type="qcurve"/>
      <point x="779" y="897"/>
      <point x="672" y="891" type="qcurve"/>
      <point x="613" y="730"/>
      <point x="563" y="563" type="qcurve"/>
      <point x="893" y="571" type="line"/>
      <point x="937" y="705"/>
      <point x="1008" y="889" type="qcurve" smooth="yes"/>
      <point x="1009" y="891"/>
      <point x="1010" y="895" type="qcurve" smooth="yes"/>
      <point x="1011" y="899"/>
    </contour>
  </outline>
</glyph>
<glyph name="dollar" format="1">
  <advance width="1147"/>
  <unicode hex="0024"/>
  <outline>
    <contour>
      <point x="823" y="1286" type="qcurve"/>
      <point x="871" y="1391"/>
      <point x="938" y="1473"/>
      <point x="973" y="1473" type="qcurve" smooth="yes"/>
      <point x="1016" y="1473"/>
      <point x="1016" y="1446" type="qcurve" smooth="yes"/>
      <point x="1016" y="1401"/>
      <point x="967" y="1303" type="qcurve"/>
      <point x="1050" y="1307"/>
      <point x="1098" y="1307" type="qcurve" smooth="yes"/>
      <point x="1140" y="1307"/>
      <point x="1190" y="1264"/>
      <point x="1190" y="1233" type="qcurve" smooth="yes"/>
      <point x="1190" y="1194"/>
      <point x="1140" y="1118"/>
      <point x="1085" y="1118" type="qcurve"/>
      <point x="1010" y="1124"/>
      <point x="883" y="1124" type="qcurve"/>
      <point x="817" y="965"/>
      <point x="762" y="801" type="qcurve"/>
      <point x="1044" y="702"/>
      <point x="1044" y="504" type="qcurve" smooth="yes"/>
      <point x="1044" y="380"/>
      <point x="797" y="182"/>
      <point x="582" y="143" type="qcurve"/>
      <point x="561" y="39" type="line" smooth="yes"/>
      <point x="557" y="12"/>
      <point x="497" y="-20"/>
      <point x="465" y="-20" type="qcurve" smooth="yes"/>
      <point x="408" y="-20"/>
      <point x="408" y="49" type="qcurve" smooth="yes"/>
      <point x="408" y="75"/>
      <point x="420" y="127" type="qcurve"/>
      <point x="377" y="127" type="line" smooth="yes"/>
      <point x="244" y="127"/>
      <point x="63" y="207"/>
      <point x="63" y="264" type="qcurve" smooth="yes"/>
      <point x="63" y="298"/>
      <point x="103" y="344"/>
      <point x="137" y="344" type="qcurve" smooth="yes"/>
      <point x="160" y="344"/>
      <point x="214" y="329" type="qcurve" smooth="yes"/>
      <point x="333" y="295"/>
      <point x="442" y="295" type="qcurve" smooth="yes"/>
      <point x="463" y="295" type="line"/>
      <point x="512" y="472"/>
      <point x="586" y="684" type="qcurve"/>
      <point x="309" y="781"/>
      <point x="309" y="954" type="qcurve" smooth="yes"/>
      <point x="309" y="1069"/>
      <point x="580" y="1249"/>
    </contour>
    <contour>
      <point x="641" y="840" type="qcurve"/>
      <point x="699" y="999"/>
      <point x="748" y="1114" type="qcurve"/>
      <point x="622" y="1094"/>
      <point x="494" y="1008"/>
      <point x="494" y="963" type="qcurve" smooth="yes"/>
      <point x="494" y="921"/>
      <point x="561" y="865"/>
    </contour>
    <contour>
      <point x="711" y="637" type="qcurve"/>
      <point x="651" y="438"/>
      <point x="621" y="317" type="qcurve"/>
      <point x="731" y="346"/>
      <point x="860" y="441"/>
      <point x="860" y="487" type="qcurve" smooth="yes"/>
      <point x="860" y="538"/>
      <point x="788" y="604"/>
    </contour>
  </outline>
</glyph>
<glyph name="percent" format="1">
  <advance width="1438"/>
  <unicode hex="0025"/>
  <outline>
    <contour>
      <point x="614" y="1464" type="qcurve" smooth="yes"/>
      <point x="707" y="1464"/>
      <point x="838" y="1339"/>
      <point x="838" y="1260" type="qcurve" smooth="yes"/>
      <point x="838" y="1091"/>
      <point x="608" y="840"/>
      <point x="440" y="840" type="qcurve" smooth="yes"/>
      <point x="343" y="840"/>
      <point x="213" y="969"/>
      <point x="213" y="1061" type="qcurve" smooth="yes"/>
      <point x="213" y="1206"/>
      <point x="455" y="1464"/>
    </contour>
    <contour>
      <point x="586" y="1325" type="qcurve" smooth="yes"/>
      <point x="494" y="1325"/>
      <point x="383" y="1168"/>
      <point x="383" y="1081" type="qcurve" smooth="yes"/>
      <point x="383" y="1039"/>
      <point x="438" y="979"/>
      <point x="477" y="979" type="qcurve" smooth="yes"/>
      <point x="550" y="979"/>
      <point x="668" y="1151"/>
      <point x="668" y="1233" type="qcurve" smooth="yes"/>
      <point x="668" y="1266"/>
      <point x="622" y="1325"/>
    </contour>
    <contour>
      <point x="145" y="70" type="qcurve" smooth="yes"/>
      <point x="145" y="93"/>
      <point x="158" y="116" type="qcurve" smooth="yes"/>
      <point x="184" y="163"/>
      <point x="573" y="610"/>
      <point x="780" y="815" type="qcurve" smooth="yes"/>
      <point x="1060" y="1092"/>
      <point x="1195" y="1214" type="qcurve" smooth="yes"/>
      <point x="1404" y="1403"/>
      <point x="1470" y="1440"/>
      <point x="1497" y="1440" type="qcurve" smooth="yes"/>
      <point x="1520" y="1440"/>
      <point x="1565" y="1397"/>
      <point x="1565" y="1364" type="qcurve" smooth="yes"/>
      <point x="1565" y="1337"/>
      <point x="1503" y="1286" type="qcurve" smooth="yes"/>
      <point x="1175" y="1013"/>
      <point x="533" y="339"/>
      <point x="344" y="86" type="qcurve" smooth="yes"/>
      <point x="280" y="-4"/>
      <point x="217" y="-4" type="qcurve" smooth="yes"/>
      <point x="186" y="-4"/>
      <point x="145" y="39"/>
    </contour>
    <contour>
      <point x="1194" y="616" type="qcurve" smooth="yes"/>
      <point x="1287" y="616"/>
      <point x="1417" y="492"/>
      <point x="1417" y="412" type="qcurve" smooth="yes"/>
      <point x="1417" y="243"/>
      <point x="1188" y="-8"/>
      <point x="1020" y="-8" type="qcurve" smooth="yes"/>
      <point x="923" y="-8"/>
      <point x="793" y="121"/>
      <point x="793" y="213" type="qcurve" smooth="yes"/>
      <point x="793" y="358"/>
      <point x="1034" y="616"/>
    </contour>
    <contour>
      <point x="1165" y="477" type="qcurve" smooth="yes"/>
      <point x="1073" y="477"/>
      <point x="963" y="320"/>
      <point x="963" y="233" type="qcurve" smooth="yes"/>
      <point x="963" y="192"/>
      <point x="1017" y="131"/>
      <point x="1057" y="131" type="qcurve" smooth="yes"/>
      <point x="1129" y="131"/>
      <point x="1247" y="304"/>
      <point x="1247" y="385" type="qcurve" smooth="yes"/>
      <point x="1247" y="418"/>
      <point x="1201" y="477"/>
    </contour>
  </outline>
</glyph>
<glyph name="ampersand" format="1">
  <advance width="1499"/>
  <unicode hex="0026"/>
  <outline>
    <contour>
      <point x="520" y="838" type="qcurve"/>
      <point x="475" y="961"/>
      <point x="475" y="1071" type="qcurve" smooth="yes"/>
      <point x="475" y="1226"/>
      <point x="750" y="1464"/>
      <point x="956" y="1464" type="qcurve" smooth="yes"/>
      <point x="1067" y="1464"/>
      <point x="1251" y="1309"/>
      <point x="1251" y="1206" type="qcurve" smooth="yes"/>
      <point x="1251" y="1084"/>
      <point x="1022" y="889"/>
      <point x="754" y="772" type="qcurve"/>
      <point x="825" y="634"/>
      <point x="1014" y="418" type="qcurve"/>
      <point x="1185" y="572"/>
      <point x="1268" y="733" type="qcurve" smooth="yes"/>
      <point x="1287" y="778"/>
      <point x="1337" y="778" type="qcurve" smooth="yes"/>
      <point x="1371" y="778"/>
      <point x="1432" y="729"/>
      <point x="1432" y="696" type="qcurve" smooth="yes"/>
      <point x="1432" y="671"/>
      <point x="1390" y="591"/>
      <point x="1234" y="406"/>
      <point x="1126" y="307" type="qcurve"/>
      <point x="1254" y="201"/>
      <point x="1401" y="186" type="qcurve" smooth="yes"/>
      <point x="1491" y="178"/>
      <point x="1491" y="78" type="qcurve" smooth="yes"/>
      <point x="1491" y="43"/>
      <point x="1442" y="-4"/>
      <point x="1403" y="-4" type="qcurve" smooth="yes"/>
      <point x="1206" y="-4"/>
      <point x="985" y="190" type="qcurve"/>
      <point x="863" y="98"/>
      <point x="581" y="-4"/>
      <point x="455" y="-4" type="qcurve" smooth="yes"/>
      <point x="312" y="-4"/>
      <point x="49" y="209"/>
      <point x="49" y="358" type="qcurve" smooth="yes"/>
      <point x="49" y="501"/>
      <point x="284" y="741"/>
    </contour>
    <contour>
      <point x="694" y="909" type="qcurve"/>
      <point x="884" y="993"/>
      <point x="1061" y="1130"/>
      <point x="1061" y="1206" type="qcurve" smooth="yes"/>
      <point x="1061" y="1242"/>
      <point x="1003" y="1296"/>
      <point x="956" y="1296" type="qcurve" smooth="yes"/>
      <point x="826" y="1296"/>
      <point x="666" y="1173"/>
      <point x="666" y="1071" type="qcurve" smooth="yes"/>
      <point x="666" y="1001"/>
    </contour>
    <contour>
      <point x="582" y="698" type="qcurve"/>
      <point x="578" y="696" type="line"/>
      <point x="402" y="621"/>
      <point x="244" y="460"/>
      <point x="244" y="358" type="qcurve" smooth="yes"/>
      <point x="244" y="271"/>
      <point x="387" y="170"/>
      <point x="473" y="170" type="qcurve" smooth="yes"/>
      <point x="656" y="170"/>
      <point x="868" y="305" type="qcurve"/>
      <point x="677" y="513"/>
    </contour>
  </outline>
</glyph>
<glyph name="quotesingle" format="1">
  <advance width="457"/>
  <unicode hex="0027"/>
  <outline>
    <contour>
      <point x="631" y="1401" type="qcurve" smooth="yes"/>
      <point x="631" y="1380"/>
      <point x="592" y="1298" type="qcurve" smooth="yes"/>
      <point x="507" y="1129"/>
      <point x="444" y="887" type="qcurve" smooth="yes"/>
      <point x="429" y="823"/>
      <point x="346" y="823" type="qcurve" smooth="yes"/>
      <point x="248" y="823"/>
      <point x="248" y="909" type="qcurve" smooth="yes"/>
      <point x="248" y="978"/>
      <point x="483" y="1466"/>
      <point x="553" y="1466" type="qcurve" smooth="yes"/>
      <point x="631" y="1466"/>
    </contour>
  </outline>
</glyph>
<glyph name="parenleft" format="1">
  <advance width="1090"/>
  <unicode hex="0028"/>
  <outline>
    <contour>
      <point x="623" y="-393" type="qcurve" smooth="yes"/>
      <point x="623" y="-422"/>
      <point x="571" y="-461"/>
      <point x="522" y="-461" type="qcurve" smooth="yes"/>
      <point x="464" y="-461"/>
      <point x="304" y="-283"/>
      <point x="195" y="21"/>
      <point x="195" y="182" type="qcurve" smooth="yes"/>
      <point x="195" y="501"/>
      <point x="507" y="1064"/>
      <point x="999" y="1464"/>
      <point x="1161" y="1464" type="qcurve" smooth="yes"/>
      <point x="1193" y="1464"/>
      <point x="1231" y="1430"/>
      <point x="1231" y="1405" type="qcurve" smooth="yes"/>
      <point x="1231" y="1373"/>
      <point x="1194" y="1333"/>
      <point x="1143" y="1317" type="qcurve" smooth="yes"/>
      <point x="1024" y="1280"/>
      <point x="662" y="963"/>
      <point x="391" y="430"/>
      <point x="391" y="182" type="qcurve" smooth="yes"/>
      <point x="391" y="49"/>
      <point x="490" y="-214"/>
      <point x="561" y="-287" type="qcurve" smooth="yes"/>
      <point x="623" y="-351"/>
    </contour>
  </outline>
</glyph>
<glyph name="parenright" format="1">
  <advance width="1090"/>
  <unicode hex="0029"/>
  <outline>
    <contour>
      <point x="565" y="1395" type="qcurve" smooth="yes"/>
      <point x="565" y="1424"/>
      <point x="618" y="1462"/>
      <point x="666" y="1462" type="qcurve" smooth="yes"/>
      <point x="724" y="1462"/>
      <point x="887" y="1279"/>
      <point x="993" y="977"/>
      <point x="993" y="819" type="qcurve" smooth="yes"/>
      <point x="993" y="501"/>
      <point x="681" y="-63"/>
      <point x="189" y="-463"/>
      <point x="27" y="-463" type="qcurve" smooth="yes"/>
      <point x="-5" y="-463"/>
      <point x="-43" y="-428"/>
      <point x="-43" y="-403" type="qcurve" smooth="yes"/>
      <point x="-43" y="-368"/>
      <point x="-1" y="-330"/>
      <point x="45" y="-315" type="qcurve" smooth="yes"/>
      <point x="165" y="-278"/>
      <point x="524" y="36"/>
      <point x="797" y="570"/>
      <point x="797" y="819" type="qcurve" smooth="yes"/>
      <point x="797" y="956"/>
      <point x="697" y="1217"/>
      <point x="627" y="1288" type="qcurve" smooth="yes"/>
      <point x="565" y="1350"/>
    </contour>
  </outline>
</glyph>
<glyph name="asterisk" format="1">
  <advance width="754"/>
  <unicode hex="002A"/>
  <outline>
    <contour>
      <point x="696" y="1122" type="qcurve"/>
      <point x="854" y="993"/>
      <point x="854" y="936" type="qcurve" smooth="yes"/>
      <point x="854" y="911"/>
      <point x="818" y="877"/>
      <point x="793" y="877" type="qcurve" smooth="yes"/>
      <point x="752" y="877"/>
      <point x="646" y="980"/>
      <point x="594" y="1024" type="qcurve"/>
      <point x="568" y="919"/>
      <point x="553" y="827" type="qcurve" smooth="yes"/>
      <point x="538" y="752"/>
      <point x="479" y="752" type="qcurve" smooth="yes"/>
      <point x="410" y="752"/>
      <point x="410" y="842" type="qcurve" smooth="yes"/>
      <point x="410" y="897"/>
      <point x="440" y="1018" type="qcurve"/>
      <point x="414" y="1003"/>
      <point x="387" y="983" type="qcurve" smooth="yes"/>
      <point x="298" y="915"/>
      <point x="252" y="915" type="qcurve" smooth="yes"/>
      <point x="182" y="915"/>
      <point x="182" y="983" type="qcurve" smooth="yes"/>
      <point x="182" y="1004"/>
      <point x="236" y="1051"/>
      <point x="426" y="1151" type="qcurve"/>
      <point x="363" y="1191"/>
      <point x="328" y="1208" type="qcurve" smooth="yes"/>
      <point x="268" y="1240"/>
      <point x="268" y="1282" type="qcurve" smooth="yes"/>
      <point x="268" y="1309"/>
      <point x="311" y="1343"/>
      <point x="340" y="1343" type="qcurve" smooth="yes"/>
      <point x="397" y="1343"/>
      <point x="518" y="1257" type="qcurve"/>
      <point x="555" y="1361"/>
      <point x="607" y="1464"/>
      <point x="635" y="1464" type="qcurve" smooth="yes"/>
      <point x="672" y="1464"/>
      <point x="696" y="1437"/>
      <point x="696" y="1405" type="qcurve" smooth="yes"/>
      <point x="696" y="1363"/>
      <point x="659" y="1247" type="qcurve"/>
      <point x="827" y="1300"/>
      <point x="862" y="1300" type="qcurve" smooth="yes"/>
      <point x="924" y="1300"/>
      <point x="924" y="1245" type="qcurve" smooth="yes"/>
      <point x="924" y="1194"/>
      <point x="750" y="1140"/>
    </contour>
  </outline>
</glyph>
<glyph name="plus" format="1">
  <advance width="1147"/>
  <unicode hex="002B"/>
  <outline>
    <contour>
      <point x="729" y="647" type="qcurve"/>
      <point x="672" y="378"/>
      <point x="672" y="291" type="qcurve" smooth="yes"/>
      <point x="672" y="263"/>
      <point x="601" y="227"/>
      <point x="565" y="227" type="qcurve" smooth="yes"/>
      <point x="525" y="227"/>
      <point x="475" y="267"/>
      <point x="475" y="297" type="qcurve" smooth="yes"/>
      <point x="475" y="404"/>
      <point x="532" y="641" type="qcurve"/>
      <point x="391" y="638"/>
      <point x="288" y="627" type="qcurve" smooth="yes"/>
      <point x="228" y="621"/>
      <point x="207" y="621" type="qcurve" smooth="yes"/>
      <point x="150" y="621"/>
      <point x="150" y="721" type="qcurve" smooth="yes"/>
      <point x="150" y="760"/>
      <point x="261" y="806"/>
      <point x="578" y="811" type="qcurve"/>
      <point x="678" y="1150"/>
      <point x="732" y="1231"/>
      <point x="784" y="1231" type="qcurve" smooth="yes"/>
      <point x="866" y="1231"/>
      <point x="866" y="1192" type="qcurve" smooth="yes"/>
      <point x="866" y="1171"/>
      <point x="836" y="1085"/>
      <point x="766" y="817" type="qcurve"/>
      <point x="955" y="823"/>
      <point x="1077" y="823" type="qcurve" smooth="yes"/>
      <point x="1155" y="823"/>
      <point x="1155" y="745" type="qcurve" smooth="yes"/>
      <point x="1155" y="653"/>
      <point x="1040" y="653" type="qcurve" smooth="yes"/>
      <point x="910" y="653"/>
    </contour>
  </outline>
</glyph>
<glyph name="comma" format="1">
  <advance width="745"/>
  <unicode hex="002C"/>
  <outline>
    <contour>
      <point x="291" y="-8" type="qcurve"/>
      <point x="240" y="-2"/>
      <point x="176" y="68"/>
      <point x="176" y="117" type="qcurve" smooth="yes"/>
      <point x="176" y="186"/>
      <point x="287" y="291"/>
      <point x="354" y="291" type="qcurve" smooth="yes"/>
      <point x="411" y="291"/>
      <point x="475" y="211"/>
      <point x="475" y="139" type="qcurve" smooth="yes"/>
      <point x="475" y="25"/>
      <point x="272" y="-276"/>
      <point x="199" y="-276" type="qcurve" smooth="yes"/>
      <point x="175" y="-276"/>
      <point x="137" y="-241"/>
      <point x="137" y="-219" type="qcurve" smooth="yes"/>
      <point x="137" y="-191"/>
      <point x="163" y="-153"/>
      <point x="205" y="-123" type="qcurve" smooth="yes"/>
      <point x="266" y="-79"/>
    </contour>
  </outline>
</glyph>
<glyph name="hyphen" format="1">
  <advance width="942"/>
  <unicode hex="002D"/>
  <outline>
    <contour>
      <point x="819" y="834" type="qcurve" smooth="yes"/>
      <point x="887" y="834"/>
      <point x="887" y="760" type="qcurve" smooth="yes"/>
      <point x="887" y="706"/>
      <point x="840" y="643"/>
      <point x="799" y="643" type="qcurve" smooth="yes"/>
      <point x="569" y="643"/>
      <point x="385" y="623" type="qcurve" smooth="yes"/>
      <point x="300" y="612"/>
      <point x="250" y="612" type="qcurve" smooth="yes"/>
      <point x="184" y="612"/>
      <point x="184" y="709" type="qcurve" smooth="yes"/>
      <point x="184" y="741"/>
      <point x="236" y="794"/>
      <point x="313" y="811"/>
      <point x="688" y="834"/>
    </contour>
  </outline>
</glyph>
<glyph name="period" format="1">
  <advance width="745"/>
  <unicode hex="002E"/>
  <outline>
    <contour>
      <point x="631" y="713" type="qcurve" smooth="yes"/>
      <point x="631" y="644"/>
      <point x="525" y="543"/>
      <point x="457" y="543" type="qcurve" smooth="yes"/>
      <point x="405" y="543"/>
      <point x="332" y="616"/>
      <point x="332" y="668" type="qcurve" smooth="yes"/>
      <point x="332" y="737"/>
      <point x="443" y="842"/>
      <point x="510" y="842" type="qcurve" smooth="yes"/>
      <point x="562" y="842"/>
      <point x="631" y="768"/>
    </contour>
  </outline>
</glyph>
<glyph name="slash" format="1">
  <advance width="1053"/>
  <unicode hex="002F"/>
  <outline>
    <contour>
      <point x="1276" y="1380" type="qcurve" smooth="yes"/>
      <point x="1276" y="1344"/>
      <point x="1194" y="1284" type="qcurve"/>
      <point x="884" y="1006"/>
      <point x="320" y="256"/>
      <point x="219" y="92" type="qcurve" smooth="yes"/>
      <point x="189" y="43"/>
      <point x="137" y="0"/>
      <point x="94" y="0" type="qcurve" smooth="yes"/>
      <point x="62" y="0"/>
      <point x="20" y="46"/>
      <point x="20" y="78" type="qcurve" smooth="yes"/>
      <point x="20" y="113"/>
      <point x="38" y="146" type="qcurve" smooth="yes"/>
      <point x="78" y="221"/>
      <point x="279" y="498" type="qcurve" smooth="yes"/>
      <point x="425" y="698"/>
      <point x="545" y="841" type="qcurve" smooth="yes"/>
      <point x="732" y="1063"/>
      <point x="1109" y="1444"/>
      <point x="1162" y="1464"/>
      <point x="1200" y="1464" type="qcurve" smooth="yes"/>
      <point x="1226" y="1464"/>
      <point x="1276" y="1418"/>
    </contour>
  </outline>
</glyph>
<glyph name="zero" format="1">
  <advance width="1438"/>
  <unicode hex="0030"/>
  <outline>
    <contour>
      <point x="1442" y="997" type="qcurve" smooth="yes"/>
      <point x="1442" y="776"/>
      <point x="1189" y="295"/>
      <point x="797" y="-8"/>
      <point x="610" y="-8" type="qcurve" smooth="yes"/>
      <point x="416" y="-8"/>
      <point x="178" y="251"/>
      <point x="178" y="479" type="qcurve" smooth="yes"/>
      <point x="178" y="697"/>
      <point x="443" y="1165"/>
      <point x="850" y="1464"/>
      <point x="1030" y="1464" type="qcurve" smooth="yes"/>
      <point x="1222" y="1464"/>
      <point x="1442" y="1214"/>
    </contour>
    <contour>
      <point x="373" y="455" type="qcurve" smooth="yes"/>
      <point x="373" y="327"/>
      <point x="508" y="164"/>
      <point x="614" y="164" type="qcurve" smooth="yes"/>
      <point x="755" y="164"/>
      <point x="1052" y="427"/>
      <point x="1247" y="841"/>
      <point x="1247" y="1024" type="qcurve" smooth="yes"/>
      <point x="1247" y="1153"/>
      <point x="1134" y="1292"/>
      <point x="1028" y="1292" type="qcurve" smooth="yes"/>
      <point x="882" y="1292"/>
      <point x="573" y="1039"/>
      <point x="373" y="638"/>
    </contour>
  </outline>
</glyph>
<glyph name="one" format="1">
  <advance width="827"/>
  <unicode hex="0031"/>
  <outline>
    <contour>
      <point x="655" y="1264" type="qcurve"/>
      <point x="627" y="1255"/>
      <point x="546" y="1224" type="qcurve" smooth="yes"/>
      <point x="369" y="1157"/>
      <point x="324" y="1157" type="qcurve" smooth="yes"/>
      <point x="293" y="1157"/>
      <point x="260" y="1194"/>
      <point x="260" y="1219" type="qcurve" smooth="yes"/>
      <point x="260" y="1289"/>
      <point x="386" y="1361"/>
      <point x="784" y="1460"/>
      <point x="825" y="1460" type="qcurve" smooth="yes"/>
      <point x="887" y="1460"/>
      <point x="887" y="1403" type="qcurve" smooth="yes"/>
      <point x="887" y="1362"/>
      <point x="844" y="1288" type="qcurve" smooth="yes"/>
      <point x="742" y="1114"/>
      <point x="452" y="315"/>
      <point x="418" y="70" type="qcurve" smooth="yes"/>
      <point x="413" y="32"/>
      <point x="354" y="-8"/>
      <point x="315" y="-8" type="qcurve" smooth="yes"/>
      <point x="227" y="-8"/>
      <point x="227" y="72" type="qcurve" smooth="yes"/>
      <point x="227" y="203"/>
      <point x="517" y="1023"/>
    </contour>
  </outline>
</glyph>
<glyph name="two" format="1">
  <advance width="1368"/>
  <unicode hex="0032"/>
  <outline>
    <contour>
      <point x="399" y="223" type="qcurve"/>
      <point x="461" y="227"/>
      <point x="494" y="227" type="qcurve" smooth="yes"/>
      <point x="578" y="227"/>
      <point x="971" y="192"/>
      <point x="1177" y="159"/>
      <point x="1227" y="128"/>
      <point x="1257" y="75"/>
      <point x="1257" y="45" type="qcurve" smooth="yes"/>
      <point x="1257" y="20"/>
      <point x="1182" y="-33"/>
      <point x="1149" y="-33" type="qcurve" smooth="yes"/>
      <point x="1110" y="-33"/>
      <point x="1030" y="-14" type="qcurve" smooth="yes"/>
      <point x="895" y="19"/>
      <point x="518" y="53"/>
      <point x="356" y="53" type="qcurve" smooth="yes"/>
      <point x="284" y="53"/>
      <point x="207" y="31" type="qcurve" smooth="yes"/>
      <point x="164" y="16"/>
      <point x="123" y="16" type="qcurve" smooth="yes"/>
      <point x="98" y="16"/>
      <point x="61" y="46"/>
      <point x="61" y="72" type="qcurve" smooth="yes"/>
      <point x="61" y="164"/>
      <point x="346" y="427"/>
      <point x="605" y="560" type="qcurve" smooth="yes"/>
      <point x="922" y="723"/>
      <point x="1126" y="943"/>
      <point x="1126" y="1049" type="qcurve" smooth="yes"/>
      <point x="1126" y="1146"/>
      <point x="975" y="1288"/>
      <point x="862" y="1288" type="qcurve" smooth="yes"/>
      <point x="758" y="1288"/>
      <point x="582" y="1218"/>
      <point x="499" y="1125" type="qcurve" smooth="yes"/>
      <point x="465" y="1087"/>
      <point x="436" y="1087" type="qcurve" smooth="yes"/>
      <point x="400" y="1087"/>
      <point x="342" y="1138"/>
      <point x="342" y="1171" type="qcurve" smooth="yes"/>
      <point x="342" y="1273"/>
      <point x="665" y="1460"/>
      <point x="883" y="1460" type="qcurve" smooth="yes"/>
      <point x="1070" y="1460"/>
      <point x="1321" y="1234"/>
      <point x="1321" y="1055" type="qcurve" smooth="yes"/>
      <point x="1321" y="877"/>
      <point x="1048" y="578"/>
      <point x="674" y="399" type="qcurve" smooth="yes"/>
      <point x="514" y="322"/>
    </contour>
  </outline>
</glyph>
<glyph name="three" format="1">
  <advance width="1368"/>
  <unicode hex="0033"/>
  <outline>
    <contour>
      <point x="1032" y="739" type="qcurve"/>
      <point x="1116" y="704"/>
      <point x="1221" y="544"/>
      <point x="1221" y="465" type="qcurve" smooth="yes"/>
      <point x="1221" y="255"/>
      <point x="896" y="-8"/>
      <point x="637" y="-8" type="qcurve" smooth="yes"/>
      <point x="435" y="-8"/>
      <point x="94" y="194"/>
      <point x="94" y="305" type="qcurve" smooth="yes"/>
      <point x="94" y="344"/>
      <point x="148" y="406"/>
      <point x="184" y="406" type="qcurve" smooth="yes"/>
      <point x="251" y="406"/>
      <point x="272" y="365" type="qcurve" smooth="yes"/>
      <point x="385" y="164"/>
      <point x="645" y="164" type="qcurve" smooth="yes"/>
      <point x="827" y="164"/>
      <point x="1026" y="327"/>
      <point x="1026" y="451" type="qcurve" smooth="yes"/>
      <point x="1026" y="515"/>
      <point x="947" y="607"/>
      <point x="837" y="641"/>
      <point x="690" y="641" type="qcurve" smooth="yes"/>
      <point x="651" y="641"/>
      <point x="604" y="694"/>
      <point x="604" y="729" type="qcurve" smooth="yes"/>
      <point x="604" y="761"/>
      <point x="663" y="813"/>
      <point x="715" y="813" type="qcurve" smooth="yes"/>
      <point x="755" y="813"/>
      <point x="791" y="811" type="qcurve" smooth="yes"/>
      <point x="862" y="805" type="line" smooth="yes"/>
      <point x="878" y="805"/>
      <point x="1055" y="878"/>
      <point x="1155" y="997"/>
      <point x="1155" y="1075" type="qcurve" smooth="yes"/>
      <point x="1155" y="1165"/>
      <point x="1000" y="1286"/>
      <point x="872" y="1286" type="qcurve" smooth="yes"/>
      <point x="652" y="1286"/>
      <point x="537" y="1133" type="qcurve" smooth="yes"/>
      <point x="506" y="1090"/>
      <point x="457" y="1090" type="qcurve" smooth="yes"/>
      <point x="419" y="1090"/>
      <point x="369" y="1136"/>
      <point x="369" y="1174" type="qcurve" smooth="yes"/>
      <point x="369" y="1263"/>
      <point x="691" y="1458"/>
      <point x="895" y="1458" type="qcurve" smooth="yes"/>
      <point x="1089" y="1458"/>
      <point x="1350" y="1248"/>
      <point x="1350" y="1092" type="qcurve" smooth="yes"/>
      <point x="1350" y="973"/>
      <point x="1184" y="786"/>
    </contour>
  </outline>
</glyph>
<glyph name="four" format="1">
  <advance width="1397"/>
  <unicode hex="0034"/>
  <outline>
    <contour>
      <point x="1106" y="743" type="line"/>
      <point x="1272" y="748"/>
      <point x="1311" y="748" type="qcurve" smooth="yes"/>
      <point x="1347" y="748"/>
      <point x="1382" y="721"/>
      <point x="1382" y="680" type="qcurve" smooth="yes"/>
      <point x="1382" y="629"/>
      <point x="1320" y="569"/>
      <point x="1266" y="569" type="qcurve" smooth="yes"/>
      <point x="1125" y="569"/>
      <point x="1047" y="567" type="qcurve"/>
      <point x="957" y="301"/>
      <point x="937" y="170" type="qcurve" smooth="yes"/>
      <point x="920" y="62"/>
      <point x="882" y="-8"/>
      <point x="819" y="-8" type="qcurve" smooth="yes"/>
      <point x="776" y="-8"/>
      <point x="729" y="49"/>
      <point x="729" y="96" type="qcurve" smooth="yes"/>
      <point x="729" y="197"/>
      <point x="860" y="563" type="qcurve"/>
      <point x="379" y="551"/>
      <point x="289" y="551" type="qcurve" smooth="yes"/>
      <point x="241" y="551"/>
      <point x="174" y="623"/>
      <point x="174" y="668" type="qcurve" smooth="yes"/>
      <point x="174" y="721"/>
      <point x="402" y="1110"/>
      <point x="698" y="1430"/>
      <point x="784" y="1430" type="qcurve" smooth="yes"/>
      <point x="868" y="1430"/>
      <point x="868" y="1378" type="qcurve" smooth="yes"/>
      <point x="868" y="1343"/>
      <point x="819" y="1309" type="qcurve" smooth="yes"/>
      <point x="687" y="1218"/>
      <point x="412" y="799"/>
      <point x="387" y="721" type="qcurve"/>
      <point x="473" y="721"/>
      <point x="924" y="737" type="qcurve"/>
      <point x="1036" y="1038"/>
      <point x="1183" y="1360"/>
      <point x="1257" y="1460"/>
      <point x="1307" y="1460" type="qcurve" smooth="yes"/>
      <point x="1360" y="1460"/>
      <point x="1360" y="1403" type="qcurve" smooth="yes"/>
      <point x="1360" y="1370"/>
      <point x="1269" y="1175"/>
      <point x="1218" y="1042" type="qcurve" smooth="yes"/>
    </contour>
  </outline>
</glyph>
<glyph name="five" format="1">
  <advance width="1368"/>
  <unicode hex="0035"/>
  <outline>
    <contour>
      <point x="506" y="887" type="qcurve"/>
      <point x="644" y="950"/>
      <point x="799" y="950" type="qcurve" smooth="yes"/>
      <point x="1005" y="950"/>
      <point x="1260" y="702"/>
      <point x="1260" y="539" type="qcurve" smooth="yes"/>
      <point x="1260" y="300"/>
      <point x="897" y="-8"/>
      <point x="588" y="-8" type="qcurve" smooth="yes"/>
      <point x="379" y="-8"/>
      <point x="88" y="198"/>
      <point x="88" y="303" type="qcurve" smooth="yes"/>
      <point x="88" y="348"/>
      <point x="138" y="418"/>
      <point x="174" y="418" type="qcurve" smooth="yes"/>
      <point x="248" y="418"/>
      <point x="262" y="379" type="qcurve" smooth="yes"/>
      <point x="348" y="166"/>
      <point x="629" y="166" type="qcurve" smooth="yes"/>
      <point x="821" y="166"/>
      <point x="1065" y="389"/>
      <point x="1065" y="520" type="qcurve" smooth="yes"/>
      <point x="1065" y="635"/>
      <point x="918" y="776"/>
      <point x="758" y="776" type="qcurve" smooth="yes"/>
      <point x="677" y="776"/>
      <point x="553" y="737" type="qcurve" smooth="yes"/>
      <point x="452" y="705"/>
      <point x="397" y="705" type="qcurve" smooth="yes"/>
      <point x="364" y="705"/>
      <point x="315" y="755"/>
      <point x="315" y="791" type="qcurve" smooth="yes"/>
      <point x="315" y="850"/>
      <point x="414" y="1173"/>
      <point x="491" y="1327"/>
      <point x="566" y="1407"/>
      <point x="624" y="1424"/>
      <point x="1155" y="1460"/>
      <point x="1358" y="1460" type="qcurve" smooth="yes"/>
      <point x="1394" y="1460"/>
      <point x="1430" y="1433"/>
      <point x="1430" y="1391" type="qcurve" smooth="yes"/>
      <point x="1430" y="1340"/>
      <point x="1366" y="1278"/>
      <point x="1313" y="1278" type="qcurve" smooth="yes"/>
      <point x="933" y="1278"/>
      <point x="639" y="1251" type="qcurve"/>
      <point x="560" y="1088"/>
    </contour>
  </outline>
</glyph>
<glyph name="six" format="1">
  <advance width="1368"/>
  <unicode hex="0036"/>
  <outline>
    <contour>
      <point x="430" y="770" type="qcurve"/>
      <point x="652" y="907"/>
      <point x="821" y="907" type="qcurve" smooth="yes"/>
      <point x="1028" y="907"/>
      <point x="1276" y="687"/>
      <point x="1276" y="498" type="qcurve" smooth="yes"/>
      <point x="1276" y="299"/>
      <point x="888" y="-8"/>
      <point x="666" y="-8" type="qcurve" smooth="yes"/>
      <point x="441" y="-8"/>
      <point x="168" y="257"/>
      <point x="168" y="461" type="qcurve" smooth="yes"/>
      <point x="168" y="672"/>
      <point x="424" y="1162"/>
      <point x="837" y="1464"/>
      <point x="1063" y="1464" type="qcurve" smooth="yes"/>
      <point x="1187" y="1464"/>
      <point x="1432" y="1331"/>
      <point x="1432" y="1255" type="qcurve" smooth="yes"/>
      <point x="1432" y="1155"/>
      <point x="1343" y="1155" type="qcurve" smooth="yes"/>
      <point x="1285" y="1155"/>
      <point x="1219" y="1225" type="qcurve" smooth="yes"/>
      <point x="1192" y="1253"/>
      <point x="1078" y="1292"/>
      <point x="1024" y="1292" type="qcurve" smooth="yes"/>
      <point x="856" y="1292"/>
      <point x="552" y="1026"/>
    </contour>
    <contour>
      <point x="801" y="737" type="qcurve" smooth="yes"/>
      <point x="715" y="737"/>
      <point x="547" y="683"/>
      <point x="380" y="574"/>
      <point x="362" y="504"/>
      <point x="362" y="461" type="qcurve" smooth="yes"/>
      <point x="362" y="323"/>
      <point x="524" y="164"/>
      <point x="666" y="164" type="qcurve" smooth="yes"/>
      <point x="820" y="164"/>
      <point x="1081" y="368"/>
      <point x="1081" y="498" type="qcurve" smooth="yes"/>
      <point x="1081" y="737"/>
    </contour>
  </outline>
</glyph>
<glyph name="seven" format="1">
  <advance width="1225"/>
  <unicode hex="0037"/>
  <outline>
    <contour>
      <point x="1135" y="1292" type="qcurve"/>
      <point x="383" y="1292" type="line" smooth="yes"/>
      <point x="339" y="1292"/>
      <point x="287" y="1346"/>
      <point x="287" y="1386" type="qcurve" smooth="yes"/>
      <point x="287" y="1420"/>
      <point x="328" y="1466"/>
      <point x="362" y="1466" type="qcurve" smooth="yes"/>
      <point x="1063" y="1458" type="line"/>
      <point x="1315" y="1466" type="line" smooth="yes"/>
      <point x="1409" y="1466"/>
      <point x="1409" y="1395" type="qcurve" smooth="yes"/>
      <point x="1409" y="1369"/>
      <point x="1372" y="1325" type="qcurve" smooth="yes"/>
      <point x="1109" y="1036"/>
      <point x="647" y="335"/>
      <point x="539" y="84" type="qcurve" smooth="yes"/>
      <point x="518" y="37"/>
      <point x="458" y="-10"/>
      <point x="420" y="-10" type="qcurve" smooth="yes"/>
      <point x="322" y="-10"/>
      <point x="322" y="80" type="qcurve" smooth="yes"/>
      <point x="322" y="105"/>
      <point x="357" y="221"/>
      <point x="700" y="753"/>
      <point x="1016" y="1164"/>
    </contour>
  </outline>
</glyph>
<glyph name="eight" format="1">
  <advance width="1346"/>
  <unicode hex="0038"/>
  <outline>
    <contour>
      <point x="831" y="805" type="qcurve"/>
      <point x="1141" y="601"/>
      <point x="1141" y="414" type="qcurve" smooth="yes"/>
      <point x="1141" y="301"/>
      <point x="974" y="107"/>
      <point x="693" y="-8"/>
      <point x="559" y="-8" type="qcurve" smooth="yes"/>
      <point x="354" y="-8"/>
      <point x="84" y="198"/>
      <point x="84" y="342" type="qcurve" smooth="yes"/>
      <point x="84" y="486"/>
      <point x="280" y="701"/>
      <point x="510" y="823" type="qcurve"/>
      <point x="393" y="929"/>
      <point x="393" y="1075" type="qcurve" smooth="yes"/>
      <point x="393" y="1241"/>
      <point x="700" y="1464"/>
      <point x="915" y="1464" type="qcurve" smooth="yes"/>
      <point x="1072" y="1464"/>
      <point x="1328" y="1310"/>
      <point x="1380" y="1174" type="qcurve"/>
      <point x="1424" y="1178"/>
      <point x="1446" y="1178" type="qcurve" smooth="yes"/>
      <point x="1507" y="1178"/>
      <point x="1507" y="1110" type="qcurve" smooth="yes"/>
      <point x="1507" y="985"/>
      <point x="1358" y="985" type="qcurve" smooth="yes"/>
      <point x="1217" y="985"/>
    </contour>
    <contour>
      <point x="678" y="907" type="qcurve"/>
      <point x="927" y="1024"/>
      <point x="1206" y="1122" type="qcurve"/>
      <point x="1150" y="1292"/>
      <point x="899" y="1292" type="qcurve" smooth="yes"/>
      <point x="776" y="1292"/>
      <point x="586" y="1160"/>
      <point x="586" y="1075" type="qcurve" smooth="yes"/>
      <point x="586" y="976"/>
    </contour>
    <contour>
      <point x="657" y="719" type="qcurve"/>
      <point x="464" y="621"/>
      <point x="279" y="439"/>
      <point x="279" y="342" type="qcurve" smooth="yes"/>
      <point x="279" y="275"/>
      <point x="415" y="164"/>
      <point x="559" y="164" type="qcurve" smooth="yes"/>
      <point x="714" y="164"/>
      <point x="946" y="315"/>
      <point x="946" y="414" type="qcurve" smooth="yes"/>
      <point x="946" y="492"/>
      <point x="815" y="622"/>
    </contour>
  </outline>
</glyph>
<glyph name="nine" format="1">
  <advance width="1368"/>
  <unicode hex="0039"/>
  <outline>
    <contour>
      <point x="1087" y="668" type="qcurve"/>
      <point x="1018" y="612"/>
      <point x="828" y="545"/>
      <point x="745" y="545" type="qcurve" smooth="yes"/>
      <point x="547" y="545"/>
      <point x="287" y="776"/>
      <point x="287" y="956" type="qcurve" smooth="yes"/>
      <point x="287" y="1151"/>
      <point x="644" y="1462"/>
      <point x="891" y="1462" type="qcurve" smooth="yes"/>
      <point x="1108" y="1462"/>
      <point x="1364" y="1221"/>
      <point x="1364" y="1024" type="qcurve" smooth="yes"/>
      <point x="1364" y="802"/>
      <point x="1114" y="296"/>
      <point x="699" y="-10"/>
      <point x="455" y="-10" type="qcurve" smooth="yes"/>
      <point x="352" y="-10"/>
      <point x="217" y="52"/>
      <point x="217" y="102" type="qcurve" smooth="yes"/>
      <point x="217" y="144"/>
      <point x="263" y="195"/>
      <point x="301" y="195" type="qcurve" smooth="yes"/>
      <point x="334" y="195"/>
      <point x="396" y="177" type="qcurve" smooth="yes"/>
      <point x="450" y="162"/>
      <point x="475" y="162" type="qcurve" smooth="yes"/>
      <point x="638" y="162"/>
      <point x="992" y="444"/>
    </contour>
    <contour>
      <point x="766" y="715" type="qcurve" smooth="yes"/>
      <point x="797" y="715"/>
      <point x="861" y="725"/>
      <point x="925" y="746"/>
      <point x="986" y="776"/>
      <point x="1044" y="813"/>
      <point x="1097" y="859"/>
      <point x="1158" y="929"/>
      <point x="1169" y="1003"/>
      <point x="1169" y="1024" type="qcurve" smooth="yes"/>
      <point x="1169" y="1290"/>
      <point x="891" y="1290" type="qcurve" smooth="yes"/>
      <point x="709" y="1290"/>
      <point x="481" y="1082"/>
      <point x="481" y="956" type="qcurve" smooth="yes"/>
      <point x="481" y="844"/>
      <point x="641" y="715"/>
    </contour>
  </outline>
</glyph>
<glyph name="colon" format="1">
  <advance width="745"/>
  <unicode hex="003A"/>
  <outline>
    <contour>
      <point x="668" y="840" type="qcurve" smooth="yes"/>
      <point x="668" y="772"/>
      <point x="562" y="670"/>
      <point x="494" y="670" type="qcurve" smooth="yes"/>
      <point x="442" y="670"/>
      <point x="369" y="743"/>
      <point x="369" y="795" type="qcurve" smooth="yes"/>
      <point x="369" y="863"/>
      <point x="479" y="969"/>
      <point x="547" y="969" type="qcurve" smooth="yes"/>
      <point x="599" y="969"/>
      <point x="668" y="895"/>
    </contour>
    <contour>
      <point x="475" y="162" type="qcurve" smooth="yes"/>
      <point x="475" y="93"/>
      <point x="369" y="-8"/>
      <point x="301" y="-8" type="qcurve" smooth="yes"/>
      <point x="249" y="-8"/>
      <point x="176" y="65"/>
      <point x="176" y="117" type="qcurve" smooth="yes"/>
      <point x="176" y="186"/>
      <point x="287" y="291"/>
      <point x="354" y="291" type="qcurve" smooth="yes"/>
      <point x="406" y="291"/>
      <point x="475" y="217"/>
    </contour>
  </outline>
</glyph>
<glyph name="semicolon" format="1">
  <advance width="745"/>
  <unicode hex="003B"/>
  <outline>
    <contour>
      <point x="668" y="840" type="qcurve" smooth="yes"/>
      <point x="668" y="772"/>
      <point x="562" y="670"/>
      <point x="494" y="670" type="qcurve" smooth="yes"/>
      <point x="442" y="670"/>
      <point x="369" y="743"/>
      <point x="369" y="795" type="qcurve" smooth="yes"/>
      <point x="369" y="863"/>
      <point x="479" y="969"/>
      <point x="547" y="969" type="qcurve" smooth="yes"/>
      <point x="599" y="969"/>
      <point x="668" y="895"/>
    </contour>
    <contour>
      <point x="291" y="-8" type="qcurve"/>
      <point x="240" y="-2"/>
      <point x="176" y="68"/>
      <point x="176" y="117" type="qcurve" smooth="yes"/>
      <point x="176" y="186"/>
      <point x="287" y="291"/>
      <point x="354" y="291" type="qcurve" smooth="yes"/>
      <point x="411" y="291"/>
      <point x="475" y="211"/>
      <point x="475" y="139" type="qcurve" smooth="yes"/>
      <point x="475" y="25"/>
      <point x="272" y="-276"/>
      <point x="199" y="-276" type="qcurve" smooth="yes"/>
      <point x="175" y="-276"/>
      <point x="137" y="-241"/>
      <point x="137" y="-219" type="qcurve" smooth="yes"/>
      <point x="137" y="-191"/>
      <point x="163" y="-153"/>
      <point x="205" y="-123" type="qcurve" smooth="yes"/>
      <point x="266" y="-79"/>
    </contour>
  </outline>
</glyph>
<glyph name="less" format="1">
  <advance width="1147"/>
  <unicode hex="003C"/>
  <outline>
    <contour>
      <point x="420" y="725" type="qcurve"/>
      <point x="587" y="636"/>
      <point x="952" y="462"/>
      <point x="1001" y="446" type="qcurve" smooth="yes"/>
      <point x="1040" y="436"/>
      <point x="1040" y="383" type="qcurve" smooth="yes"/>
      <point x="1040" y="341"/>
      <point x="1000" y="289"/>
      <point x="963" y="289" type="qcurve" smooth="yes"/>
      <point x="933" y="289"/>
      <point x="845" y="330" type="qcurve" smooth="yes"/>
      <point x="649" y="424" type="line"/>
      <point x="383" y="557" type="line" smooth="yes"/>
      <point x="225" y="637"/>
      <point x="184" y="664"/>
      <point x="168" y="698"/>
      <point x="168" y="727" type="qcurve" smooth="yes"/>
      <point x="168" y="759"/>
      <point x="190" y="799"/>
      <point x="236" y="827"/>
      <point x="369" y="882" type="qcurve" smooth="yes"/>
      <point x="708" y="1020" type="line" smooth="yes"/>
      <point x="912" y="1103"/>
      <point x="1124" y="1180"/>
      <point x="1155" y="1180" type="qcurve" smooth="yes"/>
      <point x="1184" y="1180"/>
      <point x="1219" y="1121"/>
      <point x="1219" y="1081" type="qcurve" smooth="yes"/>
      <point x="1219" y="1028"/>
      <point x="1130" y="997" type="qcurve"/>
      <point x="1039" y="971"/>
      <point x="577" y="794"/>
    </contour>
  </outline>
</glyph>
<glyph name="equal" format="1">
  <advance width="1147"/>
  <unicode hex="003D"/>
  <outline>
    <contour>
      <point x="1067" y="1018" type="qcurve" smooth="yes"/>
      <point x="1145" y="1018"/>
      <point x="1145" y="940" type="qcurve" smooth="yes"/>
      <point x="1145" y="848"/>
      <point x="1030" y="848" type="qcurve" smooth="yes"/>
      <point x="873" y="848"/>
      <point x="443" y="830"/>
      <point x="360" y="821" type="qcurve" smooth="yes"/>
      <point x="300" y="815"/>
      <point x="279" y="815" type="qcurve" smooth="yes"/>
      <point x="221" y="815"/>
      <point x="221" y="915" type="qcurve" smooth="yes"/>
      <point x="221" y="948"/>
      <point x="292" y="987"/>
      <point x="423" y="1000"/>
      <point x="941" y="1018"/>
    </contour>
    <contour>
      <point x="1006" y="629" type="qcurve" smooth="yes"/>
      <point x="1083" y="629"/>
      <point x="1083" y="551" type="qcurve" smooth="yes"/>
      <point x="1083" y="459"/>
      <point x="971" y="459" type="qcurve" smooth="yes"/>
      <point x="813" y="459"/>
      <point x="381" y="441"/>
      <point x="297" y="432" type="qcurve" smooth="yes"/>
      <point x="239" y="426"/>
      <point x="219" y="426" type="qcurve" smooth="yes"/>
      <point x="160" y="426"/>
      <point x="160" y="526" type="qcurve" smooth="yes"/>
      <point x="160" y="559"/>
      <point x="230" y="598"/>
      <point x="361" y="611"/>
      <point x="880" y="629"/>
    </contour>
  </outline>
</glyph>
<glyph name="greater" format="1">
  <advance width="1147"/>
  <unicode hex="003E"/>
  <outline>
    <contour>
      <point x="883" y="741" type="qcurve"/>
      <point x="715" y="831"/>
      <point x="350" y="1004"/>
      <point x="301" y="1020" type="qcurve" smooth="yes"/>
      <point x="285" y="1025"/>
      <point x="262" y="1061"/>
      <point x="262" y="1083" type="qcurve" smooth="yes"/>
      <point x="262" y="1125"/>
      <point x="302" y="1178"/>
      <point x="340" y="1178" type="qcurve" smooth="yes"/>
      <point x="370" y="1178"/>
      <point x="457" y="1137" type="qcurve" smooth="yes"/>
      <point x="654" y="1042" type="line"/>
      <point x="920" y="909" type="line" smooth="yes"/>
      <point x="1077" y="829"/>
      <point x="1118" y="802"/>
      <point x="1135" y="768"/>
      <point x="1135" y="739" type="qcurve" smooth="yes"/>
      <point x="1135" y="696"/>
      <point x="1093" y="650"/>
      <point x="989" y="607" type="qcurve" smooth="yes"/>
      <point x="668" y="475" type="line" smooth="yes"/>
      <point x="452" y="386"/>
      <point x="180" y="287"/>
      <point x="147" y="287" type="qcurve" smooth="yes"/>
      <point x="119" y="287"/>
      <point x="84" y="345"/>
      <point x="84" y="385" type="qcurve" smooth="yes"/>
      <point x="84" y="439"/>
      <point x="172" y="469" type="qcurve"/>
      <point x="264" y="495"/>
      <point x="726" y="672"/>
    </contour>
  </outline>
</glyph>
<glyph name="bracketleft" format="1">
  <advance width="885"/>
  <unicode hex="005B"/>
  <outline>
    <contour>
      <point x="262" y="-268" type="qcurve"/>
      <point x="312" y="-270"/>
      <point x="403" y="-275" type="qcurve" smooth="yes"/>
      <point x="554" y="-286" type="line" smooth="yes"/>
      <point x="615" y="-290"/>
      <point x="640" y="-302"/>
      <point x="658" y="-326"/>
      <point x="666" y="-356"/>
      <point x="666" y="-373" type="qcurve" smooth="yes"/>
      <point x="666" y="-406"/>
      <point x="606" y="-461"/>
      <point x="557" y="-461" type="qcurve" smooth="yes"/>
      <point x="521" y="-461"/>
      <point x="101" y="-443"/>
      <point x="47" y="-410"/>
      <point x="47" y="-369" type="qcurve" smooth="yes"/>
      <point x="47" y="-326"/>
      <point x="162" y="175"/>
      <point x="354" y="871"/>
      <point x="533" y="1388"/>
      <point x="569" y="1436"/>
      <point x="631" y="1460"/>
      <point x="670" y="1460" type="qcurve" smooth="yes"/>
      <point x="780" y="1460"/>
      <point x="1022" y="1451"/>
      <point x="1077" y="1433"/>
      <point x="1100" y="1396"/>
      <point x="1100" y="1366" type="qcurve" smooth="yes"/>
      <point x="1100" y="1272"/>
      <point x="997" y="1272" type="qcurve" smooth="yes"/>
      <point x="943" y="1272"/>
      <point x="766" y="1284"/>
      <point x="698" y="1284" type="qcurve"/>
      <point x="606" y="1061"/>
      <point x="290" y="-89"/>
    </contour>
  </outline>
</glyph>
<glyph name="backslash" format="1">
  <advance width="1053"/>
  <unicode hex="005C"/>
  <outline>
    <contour>
      <point x="772" y="0" type="qcurve" smooth="yes"/>
      <point x="664" y="0"/>
      <point x="653" y="78" type="qcurve" smooth="yes"/>
      <point x="623" y="330"/>
      <point x="460" y="1006"/>
      <point x="341" y="1277" type="qcurve" smooth="yes"/>
      <point x="303" y="1363"/>
      <point x="303" y="1386" type="qcurve" smooth="yes"/>
      <point x="303" y="1425"/>
      <point x="362" y="1464"/>
      <point x="389" y="1464" type="qcurve" smooth="yes"/>
      <point x="430" y="1464"/>
      <point x="467" y="1449"/>
      <point x="483" y="1411" type="qcurve" smooth="yes"/>
      <point x="544" y="1273"/>
      <point x="649" y="961"/>
      <point x="772" y="514"/>
      <point x="852" y="128"/>
      <point x="852" y="82" type="qcurve" smooth="yes"/>
      <point x="852" y="50"/>
      <point x="806" y="0"/>
    </contour>
  </outline>
</glyph>
<glyph name="bracketright" format="1">
  <advance width="885"/>
  <unicode hex="005D"/>
  <outline>
    <contour>
      <point x="721" y="1272" type="qcurve"/>
      <point x="383" y="1279"/>
      <point x="313" y="1312"/>
      <point x="313" y="1370" type="qcurve" smooth="yes"/>
      <point x="313" y="1406"/>
      <point x="374" y="1458"/>
      <point x="422" y="1458" type="qcurve" smooth="yes"/>
      <point x="495" y="1458"/>
      <point x="825" y="1448"/>
      <point x="901" y="1438"/>
      <point x="928" y="1405"/>
      <point x="928" y="1372" type="qcurve" smooth="yes"/>
      <point x="928" y="1314"/>
      <point x="809" y="916" type="qcurve" smooth="yes"/>
      <point x="686" y="506"/>
      <point x="550" y="-19"/>
      <point x="483" y="-325" type="qcurve" smooth="yes"/>
      <point x="469" y="-387"/>
      <point x="444" y="-433"/>
      <point x="397" y="-461"/>
      <point x="367" y="-461" type="qcurve" smooth="yes"/>
      <point x="-6" y="-461"/>
      <point x="-121" y="-427"/>
      <point x="-121" y="-369" type="qcurve" smooth="yes"/>
      <point x="-121" y="-330"/>
      <point x="-66" y="-272"/>
      <point x="-18" y="-272" type="qcurve" smooth="yes"/>
      <point x="25" y="-272"/>
      <point x="221" y="-283"/>
      <point x="295" y="-283" type="qcurve"/>
      <point x="504" y="661"/>
    </contour>
  </outline>
</glyph>
<glyph name="braceleft" format="1">
  <advance width="934"/>
  <unicode hex="007B"/>
  <outline>
    <contour>
      <point x="422" y="551" type="qcurve"/>
      <point x="473" y="531"/>
      <point x="530" y="426"/>
      <point x="530" y="371" type="qcurve" smooth="yes"/>
      <point x="530" y="273"/>
      <point x="469" y="37" type="qcurve" smooth="yes"/>
      <point x="436" y="-91"/>
      <point x="436" y="-154" type="qcurve" smooth="yes"/>
      <point x="436" y="-202"/>
      <point x="537" y="-279"/>
      <point x="682" y="-289" type="qcurve" smooth="yes"/>
      <point x="748" y="-294"/>
      <point x="748" y="-373" type="qcurve" smooth="yes"/>
      <point x="748" y="-407"/>
      <point x="689" y="-461"/>
      <point x="639" y="-461" type="qcurve" smooth="yes"/>
      <point x="479" y="-461"/>
      <point x="250" y="-287"/>
      <point x="250" y="-166" type="qcurve" smooth="yes"/>
      <point x="250" y="-82"/>
      <point x="293" y="84" type="qcurve" smooth="yes"/>
      <point x="344" y="283"/>
      <point x="344" y="348" type="qcurve" smooth="yes"/>
      <point x="344" y="399"/>
      <point x="252" y="468"/>
      <point x="170" y="475" type="qcurve" smooth="yes"/>
      <point x="142" y="478"/>
      <point x="100" y="524"/>
      <point x="100" y="551" type="qcurve" smooth="yes"/>
      <point x="100" y="635"/>
      <point x="190" y="641" type="qcurve" smooth="yes"/>
      <point x="345" y="651"/>
      <point x="469" y="718"/>
      <point x="524" y="849"/>
      <point x="562" y="1016" type="qcurve" smooth="yes"/>
      <point x="593" y="1150"/>
      <point x="635" y="1255"/>
      <point x="731" y="1358"/>
      <point x="860" y="1433"/>
      <point x="1017" y="1464"/>
      <point x="1104" y="1464" type="qcurve" smooth="yes"/>
      <point x="1139" y="1464"/>
      <point x="1182" y="1415"/>
      <point x="1182" y="1376" type="qcurve" smooth="yes"/>
      <point x="1182" y="1286"/>
      <point x="1092" y="1286" type="qcurve" smooth="yes"/>
      <point x="990" y="1286"/>
      <point x="854" y="1233"/>
      <point x="774" y="1140"/>
      <point x="745" y="1031"/>
      <point x="727" y="953" type="qcurve" smooth="yes"/>
      <point x="684" y="774"/>
      <point x="633" y="666"/>
      <point x="499" y="564"/>
    </contour>
  </outline>
</glyph>
<glyph name="bar" format="1">
  <advance width="893"/>
  <unicode hex="007C"/>
  <outline>
    <contour>
      <point x="870" y="1411" type="qcurve" smooth="yes"/>
      <point x="870" y="1370"/>
      <point x="831" y="1280" type="qcurve" smooth="yes"/>
      <point x="703" y="985"/>
      <point x="393" y="1"/>
      <point x="356" y="-246" type="qcurve" smooth="yes"/>
      <point x="346" y="-322"/>
      <point x="256" y="-322" type="qcurve" smooth="yes"/>
      <point x="168" y="-322"/>
      <point x="168" y="-244" type="qcurve" smooth="yes"/>
      <point x="168" y="-119"/>
      <point x="383" y="645"/>
      <point x="688" y="1402"/>
      <point x="760" y="1466"/>
      <point x="805" y="1466" type="qcurve" smooth="yes"/>
      <point x="870" y="1466"/>
    </contour>
  </outline>
</glyph>
<glyph name="braceright" format="1">
  <advance width="934"/>
  <unicode hex="007D"/>
  <outline>
    <contour>
      <point x="594" y="438" type="qcurve"/>
      <point x="536" y="456"/>
      <point x="469" y="572"/>
      <point x="469" y="627" type="qcurve" smooth="yes"/>
      <point x="469" y="710"/>
      <point x="532" y="958" type="qcurve" smooth="yes"/>
      <point x="555" y="1042"/>
      <point x="555" y="1124" type="qcurve" smooth="yes"/>
      <point x="555" y="1192"/>
      <point x="497" y="1261"/>
      <point x="418" y="1288"/>
      <point x="336" y="1296" type="qcurve" smooth="yes"/>
      <point x="301" y="1299"/>
      <point x="260" y="1343"/>
      <point x="260" y="1374" type="qcurve" smooth="yes"/>
      <point x="260" y="1464"/>
      <point x="399" y="1464" type="qcurve" smooth="yes"/>
      <point x="549" y="1464"/>
      <point x="741" y="1289"/>
      <point x="741" y="1157" type="qcurve" smooth="yes"/>
      <point x="741" y="1075"/>
      <point x="698" y="913" type="qcurve" smooth="yes"/>
      <point x="649" y="725"/>
      <point x="649" y="645" type="qcurve" smooth="yes"/>
      <point x="649" y="608"/>
      <point x="718" y="532"/>
      <point x="866" y="520" type="qcurve" smooth="yes"/>
      <point x="930" y="515"/>
      <point x="930" y="457" type="qcurve" smooth="yes"/>
      <point x="930" y="364"/>
      <point x="834" y="356" type="qcurve" smooth="yes"/>
      <point x="718" y="346"/>
      <point x="580" y="305"/>
      <point x="501" y="225"/>
      <point x="473" y="124"/>
      <point x="452" y="12" type="qcurve" smooth="yes"/>
      <point x="430" y="-110"/>
      <point x="398" y="-215"/>
      <point x="303" y="-344"/>
      <point x="174" y="-427"/>
      <point x="6" y="-461"/>
      <point x="-84" y="-461" type="qcurve" smooth="yes"/>
      <point x="-124" y="-461"/>
      <point x="-182" y="-408"/>
      <point x="-182" y="-373" type="qcurve" smooth="yes"/>
      <point x="-182" y="-281"/>
      <point x="-90" y="-281" type="qcurve" smooth="yes"/>
      <point x="21" y="-281"/>
      <point x="125" y="-250"/>
      <point x="208" y="-184"/>
      <point x="245" y="-86"/>
      <point x="275" y="49" type="qcurve" smooth="yes"/>
      <point x="311" y="213"/>
      <point x="361" y="322"/>
      <point x="498" y="425"/>
    </contour>
  </outline>
</glyph>
<glyph name="guillemotleft" format="1">
  <advance width="1229"/>
  <unicode hex="00AB"/>
  <outline>
    <contour>
      <point x="297" y="487" type="qcurve"/>
      <point x="403" y="338"/>
      <point x="528" y="199" type="qcurve" smooth="yes"/>
      <point x="561" y="163"/>
      <point x="561" y="109" type="qcurve" smooth="yes"/>
      <point x="561" y="41"/>
      <point x="477" y="41" type="qcurve" smooth="yes"/>
      <point x="441" y="41"/>
      <point x="374" y="96"/>
      <point x="193" y="340"/>
      <point x="127" y="448"/>
      <point x="127" y="506" type="qcurve" smooth="yes"/>
      <point x="127" y="536"/>
      <point x="172" y="596"/>
      <point x="311" y="714"/>
      <point x="568" y="908"/>
      <point x="636" y="944"/>
      <point x="657" y="944" type="qcurve" smooth="yes"/>
      <point x="693" y="944"/>
      <point x="739" y="905"/>
      <point x="739" y="874" type="qcurve" smooth="yes"/>
      <point x="739" y="845"/>
      <point x="714" y="804"/>
      <point x="670" y="774" type="qcurve" smooth="yes"/>
      <point x="467" y="638"/>
    </contour>
    <contour>
      <point x="788" y="487" type="qcurve"/>
      <point x="894" y="338"/>
      <point x="1020" y="199" type="qcurve" smooth="yes"/>
      <point x="1053" y="163"/>
      <point x="1053" y="109" type="qcurve" smooth="yes"/>
      <point x="1053" y="41"/>
      <point x="969" y="41" type="qcurve" smooth="yes"/>
      <point x="932" y="41"/>
      <point x="866" y="96"/>
      <point x="685" y="340"/>
      <point x="618" y="448"/>
      <point x="618" y="506" type="qcurve" smooth="yes"/>
      <point x="618" y="536"/>
      <point x="664" y="596"/>
      <point x="803" y="714"/>
      <point x="1060" y="908"/>
      <point x="1128" y="944"/>
      <point x="1149" y="944" type="qcurve" smooth="yes"/>
      <point x="1185" y="944"/>
      <point x="1231" y="905"/>
      <point x="1231" y="874" type="qcurve" smooth="yes"/>
      <point x="1231" y="842"/>
      <point x="1201" y="801"/>
      <point x="1161" y="774" type="qcurve" smooth="yes"/>
      <point x="959" y="638"/>
    </contour>
  </outline>
</glyph>
<glyph name="uni00B7" format="1">
  <advance width="745"/>
  <unicode hex="00B7"/>
  <outline>
    <contour>
      <point x="565" y="551" type="qcurve" smooth="yes"/>
      <point x="565" y="482"/>
      <point x="459" y="381"/>
      <point x="391" y="381" type="qcurve" smooth="yes"/>
      <point x="339" y="381"/>
      <point x="266" y="454"/>
      <point x="266" y="506" type="qcurve" smooth="yes"/>
      <point x="266" y="574"/>
      <point x="377" y="680"/>
      <point x="444" y="680" type="qcurve" smooth="yes"/>
      <point x="496" y="680"/>
      <point x="565" y="606"/>
    </contour>
  </outline>
</glyph>
<glyph name="guillemotright" format="1">
  <advance width="1229"/>
  <unicode hex="00BB"/>
  <outline>
    <contour>
      <point x="981" y="498" type="qcurve"/>
      <point x="875" y="647"/>
      <point x="750" y="786" type="qcurve" smooth="yes"/>
      <point x="717" y="822"/>
      <point x="717" y="877" type="qcurve" smooth="yes"/>
      <point x="717" y="944"/>
      <point x="801" y="944" type="qcurve" smooth="yes"/>
      <point x="837" y="944"/>
      <point x="904" y="889"/>
      <point x="1085" y="646"/>
      <point x="1151" y="537"/>
      <point x="1151" y="479" type="qcurve" smooth="yes"/>
      <point x="1151" y="449"/>
      <point x="1106" y="389"/>
      <point x="967" y="271"/>
      <point x="710" y="77"/>
      <point x="642" y="41"/>
      <point x="621" y="41" type="qcurve" smooth="yes"/>
      <point x="585" y="41"/>
      <point x="539" y="80"/>
      <point x="539" y="111" type="qcurve" smooth="yes"/>
      <point x="539" y="141"/>
      <point x="564" y="181"/>
      <point x="608" y="211" type="qcurve" smooth="yes"/>
      <point x="811" y="348"/>
    </contour>
    <contour>
      <point x="489" y="498" type="qcurve"/>
      <point x="383" y="647"/>
      <point x="258" y="786" type="qcurve" smooth="yes"/>
      <point x="225" y="822"/>
      <point x="225" y="877" type="qcurve" smooth="yes"/>
      <point x="225" y="944"/>
      <point x="309" y="944" type="qcurve" smooth="yes"/>
      <point x="346" y="944"/>
      <point x="412" y="889"/>
      <point x="593" y="646"/>
      <point x="659" y="537"/>
      <point x="659" y="479" type="qcurve" smooth="yes"/>
      <point x="659" y="449"/>
      <point x="614" y="389"/>
      <point x="475" y="271"/>
      <point x="218" y="77"/>
      <point x="150" y="41"/>
      <point x="129" y="41" type="qcurve" smooth="yes"/>
      <point x="93" y="41"/>
      <point x="47" y="80"/>
      <point x="47" y="111" type="qcurve" smooth="yes"/>
      <point x="47" y="141"/>
      <point x="72" y="181"/>
      <point x="117" y="211" type="qcurve" smooth="yes"/>
      <point x="319" y="348"/>
    </contour>
  </outline>
</glyph>
<glyph name="afii57388" format="1">
  <advance width="745"/>
  <unicode hex="060C"/>
  <outline>
    <contour>
      <point x="516" y="842" type="qcurve"/>
      <point x="567" y="836"/>
      <point x="631" y="765"/>
      <point x="631" y="717" type="qcurve" smooth="yes"/>
      <point x="631" y="648"/>
      <point x="520" y="543"/>
      <point x="453" y="543" type="qcurve" smooth="yes"/>
      <point x="397" y="543"/>
      <point x="332" y="622"/>
      <point x="332" y="694" type="qcurve" smooth="yes"/>
      <point x="332" y="809"/>
      <point x="535" y="1110"/>
      <point x="609" y="1110" type="qcurve" smooth="yes"/>
      <point x="633" y="1110"/>
      <point x="670" y="1074"/>
      <point x="670" y="1053" type="qcurve" smooth="yes"/>
      <point x="670" y="1020"/>
      <point x="639" y="982"/>
      <point x="602" y="957" type="qcurve" smooth="yes"/>
      <point x="542" y="913"/>
    </contour>
  </outline>
</glyph>
<glyph name="afii57403" format="1">
  <advance width="745"/>
  <unicode hex="061B"/>
  <outline>
    <contour>
      <point x="473" y="739" type="qcurve"/>
      <point x="524" y="733"/>
      <point x="588" y="663"/>
      <point x="588" y="614" type="qcurve" smooth="yes"/>
      <point x="588" y="546"/>
      <point x="477" y="440"/>
      <point x="410" y="440" type="qcurve" smooth="yes"/>
      <point x="353" y="440"/>
      <point x="289" y="520"/>
      <point x="289" y="592" type="qcurve" smooth="yes"/>
      <point x="289" y="707"/>
      <point x="492" y="1008"/>
      <point x="565" y="1008" type="qcurve" smooth="yes"/>
      <point x="589" y="1008"/>
      <point x="627" y="972"/>
      <point x="627" y="950" type="qcurve" smooth="yes"/>
      <point x="627" y="917"/>
      <point x="595" y="880"/>
      <point x="559" y="854" type="qcurve" smooth="yes"/>
      <point x="498" y="810"/>
    </contour>
    <contour>
      <point x="475" y="162" type="qcurve" smooth="yes"/>
      <point x="475" y="93"/>
      <point x="369" y="-8"/>
      <point x="301" y="-8" type="qcurve" smooth="yes"/>
      <point x="249" y="-8"/>
      <point x="176" y="65"/>
      <point x="176" y="117" type="qcurve" smooth="yes"/>
      <point x="176" y="186"/>
      <point x="287" y="291"/>
      <point x="354" y="291" type="qcurve" smooth="yes"/>
      <point x="406" y="291"/>
      <point x="475" y="217"/>
    </contour>
  </outline>
</glyph>
<glyph name="afii57407" format="1">
  <advance width="868"/>
  <unicode hex="061F"/>
  <outline>
    <contour>
      <point x="680" y="1280" type="qcurve" smooth="yes"/>
      <point x="576" y="1280"/>
      <point x="442" y="1135"/>
      <point x="442" y="1059" type="qcurve" smooth="yes"/>
      <point x="442" y="996"/>
      <point x="510" y="881" type="qcurve" smooth="yes"/>
      <point x="564" y="790"/>
      <point x="592" y="693"/>
      <point x="592" y="651" type="qcurve" smooth="yes"/>
      <point x="592" y="582"/>
      <point x="510" y="440"/>
      <point x="446" y="440" type="qcurve" smooth="yes"/>
      <point x="416" y="440"/>
      <point x="377" y="480"/>
      <point x="377" y="512" type="qcurve" smooth="yes"/>
      <point x="377" y="536"/>
      <point x="395" y="573" type="qcurve" smooth="yes"/>
      <point x="416" y="615"/>
      <point x="416" y="647" type="qcurve" smooth="yes"/>
      <point x="416" y="674"/>
      <point x="393" y="736"/>
      <point x="347" y="799" type="qcurve" smooth="yes"/>
      <point x="283" y="888"/>
      <point x="248" y="1004"/>
      <point x="248" y="1059" type="qcurve" smooth="yes"/>
      <point x="248" y="1207"/>
      <point x="501" y="1446"/>
      <point x="705" y="1446" type="qcurve" smooth="yes"/>
      <point x="828" y="1446"/>
      <point x="1004" y="1327"/>
      <point x="1004" y="1253" type="qcurve" smooth="yes"/>
      <point x="1004" y="1176"/>
      <point x="911" y="1176" type="qcurve" smooth="yes"/>
      <point x="882" y="1176"/>
      <point x="833" y="1216" type="qcurve" smooth="yes"/>
      <point x="754" y="1280"/>
    </contour>
    <contour>
      <point x="502" y="162" type="qcurve" smooth="yes"/>
      <point x="502" y="94"/>
      <point x="396" y="-8"/>
      <point x="328" y="-8" type="qcurve" smooth="yes"/>
      <point x="276" y="-8"/>
      <point x="203" y="65"/>
      <point x="203" y="117" type="qcurve" smooth="yes"/>
      <point x="203" y="186"/>
      <point x="313" y="291"/>
      <point x="381" y="291" type="qcurve" smooth="yes"/>
      <point x="433" y="291"/>
      <point x="502" y="217"/>
    </contour>
  </outline>
</glyph>
<glyph name="thn_H" format="1">
  <advance width="1096"/>
  <unicode hex="0780"/>
  <outline>
    <contour>
      <point x="520" y="-220" type="move" name="Anchor-1"/>
    </contour>
    <contour>
      <point x="589" y="1300" type="move" name="Anchor-0"/>
    </contour>
    <contour>
      <point x="-115" y="-100" type="qcurve" smooth="yes"/>
      <point x="-115" y="-56"/>
      <point x="-62" y="-9"/>
      <point x="0" y="10" type="qcurve" smooth="yes"/>
      <point x="303" y="106"/>
      <point x="770" y="495"/>
      <point x="881" y="735" type="qcurve" smooth="yes"/>
      <point x="902" y="780"/>
      <point x="944" y="823"/>
      <point x="987" y="823" type="qcurve" smooth="yes"/>
      <point x="1020" y="823"/>
      <point x="1059" y="778"/>
      <point x="1059" y="745" type="qcurve" smooth="yes"/>
      <point x="1059" y="627"/>
      <point x="670" y="172"/>
      <point x="108" y="-184"/>
      <point x="-12" y="-184" type="qcurve" smooth="yes"/>
      <point x="-58" y="-184"/>
      <point x="-115" y="-137"/>
    </contour>
    <contour>
      <point x="629" y="1100" type="move" smooth="yes"/>
    </contour>
    <contour>
      <point x="1014" y="-219" type="move" smooth="yes"/>
    </contour>
  </outline>
</glyph>
<glyph name="thn_SH" format="1">
  <advance width="1608"/>
  <unicode hex="0781"/>
  <outline>
    <contour>
      <point x="800" y="-220" type="move" name="Anchor-1"/>
    </contour>
    <contour>
      <point x="720" y="1300" type="move" name="Anchor-0"/>
    </contour>
    <contour>
      <point x="1065" y="580" type="qcurve"/>
      <point x="774" y="197"/>
      <point x="131" y="-184"/>
      <point x="-10" y="-184" type="qcurve" smooth="yes"/>
      <point x="-58" y="-184"/>
      <point x="-115" y="-136"/>
      <point x="-115" y="-96" type="qcurve" smooth="yes"/>
      <point x="-115" y="-17"/>
      <point x="18" y="8" type="qcurve" smooth="yes"/>
      <point x="235" y="49"/>
      <point x="655" y="339"/>
      <point x="885" y="612" type="qcurve"/>
      <point x="836" y="646"/>
      <point x="836" y="700" type="qcurve" smooth="yes"/>
      <point x="836" y="748"/>
      <point x="918" y="821"/>
      <point x="969" y="821" type="qcurve" smooth="yes"/>
      <point x="1018" y="821"/>
      <point x="1088" y="780"/>
      <point x="1092" y="754" type="qcurve"/>
      <point x="1280" y="768"/>
      <point x="1406" y="903" type="qcurve" smooth="yes"/>
      <point x="1439" y="938"/>
      <point x="1480" y="967"/>
      <point x="1511" y="967" type="qcurve" smooth="yes"/>
      <point x="1547" y="967"/>
      <point x="1591" y="924"/>
      <point x="1591" y="891" type="qcurve" smooth="yes"/>
      <point x="1591" y="784"/>
      <point x="1265" y="597"/>
    </contour>
    <contour>
      <point x="1167" y="1100" type="move" smooth="yes"/>
    </contour>
    <contour>
      <point x="1253" y="-96" type="move" smooth="yes"/>
    </contour>
  </outline>
</glyph>
<glyph name="thn_N" format="1">
  <advance width="1710"/>
  <unicode hex="0782"/>
  <outline>
    <contour>
      <point x="780" y="-220" type="move" name="Anchor-1"/>
    </contour>
    <contour>
      <point x="820" y="1300" type="move" name="Anchor-0"/>
    </contour>
    <contour>
      <point x="942" y="483" type="qcurve"/>
      <point x="714" y="221"/>
      <point x="80" y="-184"/>
      <point x="-10" y="-184" type="qcurve" smooth="yes"/>
      <point x="-58" y="-184"/>
      <point x="-115" y="-136"/>
      <point x="-115" y="-96" type="qcurve" smooth="yes"/>
      <point x="-115" y="-24"/>
      <point x="-25" y="2" type="qcurve" smooth="yes"/>
      <point x="136" y="49"/>
      <point x="618" y="360"/>
      <point x="762" y="522" type="qcurve"/>
      <point x="668" y="576"/>
      <point x="668" y="662" type="qcurve" smooth="yes"/>
      <point x="668" y="704"/>
      <point x="725" y="780"/>
      <point x="786" y="780" type="qcurve" smooth="yes"/>
      <point x="841" y="780"/>
      <point x="881" y="735" type="qcurve" smooth="yes"/>
      <point x="915" y="696"/>
      <point x="956" y="696" type="qcurve" smooth="yes"/>
      <point x="984" y="696"/>
      <point x="1042" y="719"/>
      <point x="1089" y="762" type="qcurve" smooth="yes"/>
      <point x="1154" y="821"/>
      <point x="1204" y="821" type="qcurve" smooth="yes"/>
      <point x="1228" y="821"/>
      <point x="1273" y="797"/>
      <point x="1314" y="744" type="qcurve" smooth="yes"/>
      <point x="1346" y="701"/>
      <point x="1366" y="682" type="qcurve"/>
      <point x="1435" y="716"/>
      <point x="1485" y="813" type="qcurve" smooth="yes"/>
      <point x="1536" y="907"/>
      <point x="1593" y="907" type="qcurve" smooth="yes"/>
      <point x="1686" y="907"/>
      <point x="1686" y="819" type="qcurve" smooth="yes"/>
      <point x="1686" y="744"/>
      <point x="1453" y="496"/>
      <point x="1350" y="496" type="qcurve" smooth="yes"/>
      <point x="1301" y="496"/>
      <point x="1225" y="544"/>
      <point x="1178" y="604" type="qcurve"/>
      <point x="1109" y="510"/>
    </contour>
    <contour>
      <point x="1167" y="1100" type="move" smooth="yes"/>
    </contour>
    <contour>
      <point x="1292" y="-96" type="move" smooth="yes"/>
    </contour>
  </outline>
</glyph>
<glyph name="thn_R" format="1">
  <advance width="1513"/>
  <unicode hex="0783"/>
  <outline>
    <contour>
      <point x="780" y="-220" type="move" name="Anchor-1"/>
    </contour>
    <contour>
      <point x="690" y="1300" type="move" name="Anchor-0"/>
    </contour>
    <contour>
      <point x="944" y="440" type="qcurve"/>
      <point x="723" y="231"/>
      <point x="99" y="-184"/>
      <point x="-10" y="-184" type="qcurve" smooth="yes"/>
      <point x="-58" y="-184"/>
      <point x="-115" y="-136"/>
      <point x="-115" y="-96" type="qcurve" smooth="yes"/>
      <point x="-115" y="-25"/>
      <point x="0" y="12" type="qcurve" smooth="yes"/>
      <point x="152" y="62"/>
      <point x="610" y="348"/>
      <point x="815" y="541" type="qcurve"/>
      <point x="707" y="614"/>
      <point x="707" y="700" type="qcurve" smooth="yes"/>
      <point x="707" y="756"/>
      <point x="780" y="821"/>
      <point x="844" y="821" type="qcurve" smooth="yes"/>
      <point x="949" y="821"/>
      <point x="1026" y="748" type="qcurve"/>
      <point x="1286" y="1008"/>
      <point x="1397" y="1008" type="qcurve" smooth="yes"/>
      <point x="1495" y="1008"/>
      <point x="1495" y="934" type="qcurve" smooth="yes"/>
      <point x="1495" y="848"/>
      <point x="1380" y="795" type="qcurve" smooth="yes"/>
      <point x="1277" y="746"/>
      <point x="1149" y="625" type="qcurve"/>
      <point x="1188" y="597"/>
      <point x="1284" y="586" type="qcurve" smooth="yes"/>
      <point x="1391" y="573"/>
      <point x="1391" y="477" type="qcurve" smooth="yes"/>
      <point x="1391" y="424"/>
      <point x="1305" y="360"/>
      <point x="1241" y="360" type="qcurve" smooth="yes"/>
      <point x="1098" y="360"/>
    </contour>
    <contour>
      <point x="1014" y="1100" type="move" smooth="yes"/>
    </contour>
    <contour>
      <point x="1268" y="-86" type="move" smooth="yes"/>
    </contour>
    <contour>
      <point x="1016" y="1400" type="move" smooth="yes"/>
    </contour>
  </outline>
</glyph>
<glyph name="thn_B" format="1">
  <advance width="1526"/>
  <unicode hex="0784"/>
  <outline>
    <contour>
      <point x="765" y="-220" type="move" name="Anchor-1"/>
    </contour>
    <contour>
      <point x="797" y="1300" type="move" name="Anchor-0"/>
    </contour>
    <contour>
      <point x="831" y="633" type="qcurve"/>
      <point x="977" y="883"/>
      <point x="1182" y="883" type="qcurve" smooth="yes"/>
      <point x="1306" y="883"/>
      <point x="1460" y="731"/>
      <point x="1460" y="612" type="qcurve" smooth="yes"/>
      <point x="1460" y="362"/>
      <point x="972" y="-8"/>
      <point x="635" y="-8" type="qcurve" smooth="yes"/>
      <point x="403" y="-8"/>
      <point x="133" y="235"/>
      <point x="133" y="403" type="qcurve" smooth="yes"/>
      <point x="133" y="577"/>
      <point x="376" y="821"/>
      <point x="559" y="821" type="qcurve" smooth="yes"/>
      <point x="649" y="821"/>
      <point x="801" y="715"/>
    </contour>
    <contour>
      <point x="770" y="168" type="qcurve"/>
      <point x="989" y="203"/>
      <point x="1262" y="466"/>
      <point x="1262" y="598" type="qcurve" smooth="yes"/>
      <point x="1262" y="645"/>
      <point x="1198" y="709"/>
      <point x="1147" y="709" type="qcurve" smooth="yes"/>
      <point x="1068" y="709"/>
      <point x="915" y="553"/>
      <point x="885" y="436" type="qcurve" smooth="yes"/>
      <point x="839" y="258"/>
    </contour>
    <contour>
      <point x="322" y="391" type="qcurve" smooth="yes"/>
      <point x="322" y="301"/>
      <point x="443" y="166"/>
      <point x="526" y="166" type="qcurve" smooth="yes"/>
      <point x="596" y="166"/>
      <point x="705" y="374"/>
      <point x="705" y="489" type="qcurve" smooth="yes"/>
      <point x="705" y="556"/>
      <point x="615" y="649"/>
      <point x="551" y="649" type="qcurve" smooth="yes"/>
      <point x="448" y="649"/>
      <point x="322" y="506"/>
    </contour>
    <contour>
      <point x="811" y="1100" type="move" smooth="yes"/>
    </contour>
    <contour>
      <point x="1047" y="-180" type="move" smooth="yes"/>
    </contour>
  </outline>
</glyph>
<glyph name="thn_L" format="1">
  <advance width="1434"/>
  <unicode hex="0785"/>
  <outline>
    <contour>
      <point x="760" y="-220" type="move" name="Anchor-1"/>
    </contour>
    <contour>
      <point x="585" y="1300" type="move" name="Anchor-0"/>
    </contour>
    <contour>
      <point x="958" y="442" type="qcurve"/>
      <point x="951" y="440"/>
      <point x="938" y="440" type="qcurve" smooth="yes"/>
      <point x="823" y="440"/>
      <point x="664" y="563"/>
      <point x="664" y="664" type="qcurve" smooth="yes"/>
      <point x="664" y="773"/>
      <point x="820" y="948"/>
      <point x="883" y="948" type="qcurve" smooth="yes"/>
      <point x="917" y="948"/>
      <point x="961" y="908"/>
      <point x="961" y="877" type="qcurve" smooth="yes"/>
      <point x="961" y="834"/>
      <point x="907" y="778" type="qcurve" smooth="yes"/>
      <point x="852" y="722"/>
      <point x="852" y="678" type="qcurve" smooth="yes"/>
      <point x="852" y="638"/>
      <point x="941" y="588"/>
      <point x="1012" y="588" type="qcurve" smooth="yes"/>
      <point x="1059" y="588"/>
      <point x="1146" y="655"/>
      <point x="1200" y="741" type="qcurve" smooth="yes"/>
      <point x="1250" y="821"/>
      <point x="1321" y="821" type="qcurve" smooth="yes"/>
      <point x="1356" y="821"/>
      <point x="1399" y="771"/>
      <point x="1399" y="733" type="qcurve" smooth="yes"/>
      <point x="1399" y="632"/>
      <point x="928" y="150"/>
      <point x="202" y="-184"/>
      <point x="-10" y="-184" type="qcurve" smooth="yes"/>
      <point x="-58" y="-184"/>
      <point x="-115" y="-136"/>
      <point x="-115" y="-96" type="qcurve" smooth="yes"/>
      <point x="-115" y="-48"/>
      <point x="-49" y="16"/>
      <point x="14" y="20" type="qcurve" smooth="yes"/>
      <point x="238" y="35"/>
      <point x="799" y="274"/>
    </contour>
    <contour>
      <point x="974" y="1150" type="move" smooth="yes"/>
    </contour>
    <contour>
      <point x="1229" y="-119" type="move" smooth="yes"/>
    </contour>
  </outline>
</glyph>
<glyph name="hn_K" format="1">
  <advance width="1180"/>
  <unicode hex="0786"/>
  <outline>
    <contour>
      <point x="550" y="-220" type="move" name="Anchor-1"/>
    </contour>
    <contour>
      <point x="650" y="1300" type="move" name="Anchor-0"/>
    </contour>
    <contour>
      <point x="342" y="180" type="qcurve"/>
      <point x="515" y="263"/>
      <point x="865" y="599"/>
      <point x="948" y="788" type="qcurve" smooth="yes"/>
      <point x="984" y="868"/>
      <point x="1057" y="868" type="qcurve" smooth="yes"/>
      <point x="1097" y="868"/>
      <point x="1145" y="826"/>
      <point x="1145" y="788" type="qcurve" smooth="yes"/>
      <point x="1145" y="680"/>
      <point x="814" y="283"/>
      <point x="353" y="-18"/>
      <point x="217" y="-18" type="qcurve" smooth="yes"/>
      <point x="175" y="-18"/>
      <point x="123" y="30"/>
      <point x="123" y="61" type="qcurve" smooth="yes"/>
      <point x="123" y="113"/>
      <point x="168" y="201" type="qcurve" smooth="yes"/>
      <point x="256" y="373"/>
      <point x="256" y="537" type="qcurve" smooth="yes"/>
      <point x="256" y="591"/>
      <point x="232" y="657" type="qcurve" smooth="yes"/>
      <point x="215" y="705"/>
      <point x="215" y="733" type="qcurve" smooth="yes"/>
      <point x="215" y="770"/>
      <point x="262" y="821"/>
      <point x="307" y="821" type="qcurve" smooth="yes"/>
      <point x="440" y="821"/>
      <point x="440" y="565" type="qcurve" smooth="yes"/>
      <point x="440" y="329"/>
    </contour>
    <contour>
      <point x="610" y="1100" type="move" smooth="yes"/>
    </contour>
    <contour>
      <point x="963" y="-118" type="move" smooth="yes"/>
    </contour>
  </outline>
</glyph>
<glyph name="thn_Alifu" format="1">
  <advance width="1130"/>
  <unicode hex="0787"/>
  <outline>
    <contour>
      <point x="540" y="-220" type="move" name="Anchor-1"/>
    </contour>
    <contour>
      <point x="595" y="1300" type="move" name="Anchor-0"/>
    </contour>
    <contour>
      <point x="868" y="631" type="qcurve"/>
      <point x="666" y="326"/>
      <point x="219" y="-18"/>
      <point x="68" y="-18" type="qcurve" smooth="yes"/>
      <point x="23" y="-18"/>
      <point x="-29" y="24"/>
      <point x="-29" y="61" type="qcurve" smooth="yes"/>
      <point x="-29" y="140"/>
      <point x="82" y="178" type="qcurve" smooth="yes"/>
      <point x="244" y="234"/>
      <point x="545" y="471"/>
      <point x="655" y="633" type="qcurve" smooth="yes"/>
      <point x="729" y="740"/>
      <point x="830" y="821"/>
      <point x="881" y="821" type="qcurve" smooth="yes"/>
      <point x="957" y="821"/>
      <point x="1077" y="632"/>
      <point x="1077" y="516" type="qcurve" smooth="yes"/>
      <point x="1077" y="358"/>
      <point x="1007" y="110"/>
      <point x="939" y="25"/>
      <point x="881" y="25" type="qcurve" smooth="yes"/>
      <point x="795" y="25"/>
      <point x="795" y="113" type="qcurve" smooth="yes"/>
      <point x="795" y="167"/>
      <point x="844" y="268" type="qcurve" smooth="yes"/>
      <point x="897" y="382"/>
      <point x="897" y="500" type="qcurve" smooth="yes"/>
      <point x="897" y="582"/>
    </contour>
    <contour>
      <point x="615" y="1100" type="move" smooth="yes"/>
    </contour>
    <contour>
      <point x="963" y="-125" type="move" smooth="yes"/>
    </contour>
    <contour>
      <point x="958" y="-352" type="move" smooth="yes"/>
    </contour>
    <contour>
      <point x="615" y="1100" type="move" smooth="yes"/>
    </contour>
  </outline>
</glyph>
<glyph name="thn_V" format="1">
  <advance width="903"/>
  <unicode hex="0788"/>
  <outline>
    <contour>
      <point x="440" y="-220" type="move" name="Anchor-1"/>
    </contour>
    <contour>
      <point x="461" y="1300" type="move" name="Anchor-0"/>
    </contour>
    <contour>
      <point x="532" y="283" type="qcurve"/>
      <point x="504" y="276"/>
      <point x="473" y="276" type="qcurve" smooth="yes"/>
      <point x="349" y="276"/>
      <point x="195" y="400"/>
      <point x="195" y="502" type="qcurve" smooth="yes"/>
      <point x="195" y="633"/>
      <point x="420" y="825"/>
      <point x="569" y="825" type="qcurve" smooth="yes"/>
      <point x="705" y="825"/>
      <point x="864" y="686"/>
      <point x="864" y="563" type="qcurve" smooth="yes"/>
      <point x="864" y="433"/>
      <point x="648" y="120"/>
      <point x="145" y="-184"/>
      <point x="-18" y="-184" type="qcurve" smooth="yes"/>
      <point x="-66" y="-184"/>
      <point x="-123" y="-136"/>
      <point x="-123" y="-96" type="qcurve" smooth="yes"/>
      <point x="-123" y="-13"/>
      <point x="10" y="10" type="qcurve" smooth="yes"/>
      <point x="291" y="58"/>
    </contour>
    <contour>
      <point x="674" y="569" type="qcurve" smooth="yes"/>
      <point x="674" y="664"/>
      <point x="561" y="664" type="qcurve" smooth="yes"/>
      <point x="490" y="664"/>
      <point x="385" y="569"/>
      <point x="385" y="522" type="qcurve" smooth="yes"/>
      <point x="385" y="434"/>
      <point x="504" y="434" type="qcurve" smooth="yes"/>
      <point x="570" y="434"/>
      <point x="674" y="527"/>
    </contour>
    <contour>
      <point x="461" y="1100" type="move" smooth="yes"/>
    </contour>
    <contour>
      <point x="856" y="-219" type="move" smooth="yes"/>
    </contour>
    <contour>
      <point x="455" y="1400" type="move" smooth="yes"/>
    </contour>
  </outline>
</glyph>
<glyph name="thn_M" format="1">
  <advance width="1047"/>
  <unicode hex="0789"/>
  <outline>
    <contour>
      <point x="525" y="-220" type="move" name="Anchor-1"/>
    </contour>
    <contour>
      <point x="510" y="1300" type="move" name="Anchor-0"/>
    </contour>
    <contour>
      <point x="438" y="598" type="qcurve" smooth="yes"/>
      <point x="399" y="598"/>
      <point x="352" y="644"/>
      <point x="352" y="680" type="qcurve" smooth="yes"/>
      <point x="352" y="749"/>
      <point x="550" y="825"/>
      <point x="727" y="825" type="qcurve" smooth="yes"/>
      <point x="864" y="825"/>
      <point x="1028" y="723"/>
      <point x="1028" y="639" type="qcurve" smooth="yes"/>
      <point x="1028" y="442"/>
      <point x="179" y="-174"/>
      <point x="-18" y="-174" type="qcurve" smooth="yes"/>
      <point x="-121" y="-174"/>
      <point x="-121" y="-90" type="qcurve" smooth="yes"/>
      <point x="-121" y="-1"/>
      <point x="10" y="20" type="qcurve" smooth="yes"/>
      <point x="234" y="59"/>
      <point x="836" y="513"/>
      <point x="836" y="616" type="qcurve" smooth="yes"/>
      <point x="836" y="651"/>
      <point x="719" y="651" type="qcurve" smooth="yes"/>
      <point x="645" y="651"/>
      <point x="547" y="620" type="qcurve" smooth="yes"/>
      <point x="477" y="598"/>
    </contour>
    <contour>
      <point x="627" y="1100" type="move" smooth="yes"/>
    </contour>
    <contour>
      <point x="834" y="-315" type="move" smooth="yes"/>
    </contour>
  </outline>
</glyph>
<glyph name="thn_F" format="1">
  <advance width="1057"/>
  <unicode hex="078A"/>
  <outline>
    <contour>
      <point x="560" y="-300" type="move" name="Anchor-1"/>
    </contour>
    <contour>
      <point x="420" y="1300" type="move" name="Anchor-0"/>
    </contour>
    <contour>
      <point x="727" y="434" type="qcurve"/>
      <point x="797" y="398"/>
      <point x="797" y="330" type="qcurve" smooth="yes"/>
      <point x="797" y="230"/>
      <point x="431" y="-129"/>
      <point x="-104" y="-457"/>
      <point x="-209" y="-457" type="qcurve" smooth="yes"/>
      <point x="-256" y="-457"/>
      <point x="-313" y="-408"/>
      <point x="-313" y="-369" type="qcurve" smooth="yes"/>
      <point x="-313" y="-297"/>
      <point x="-223" y="-270" type="qcurve" smooth="yes"/>
      <point x="64" y="-183"/>
      <point x="602" y="228"/>
      <point x="602" y="317" type="qcurve" smooth="yes"/>
      <point x="602" y="367"/>
      <point x="530" y="387" type="qcurve" smooth="yes"/>
      <point x="453" y="410"/>
      <point x="453" y="457" type="qcurve" smooth="yes"/>
      <point x="453" y="495"/>
      <point x="505" y="537"/>
      <point x="592" y="555" type="qcurve" smooth="yes"/>
      <point x="799" y="599"/>
      <point x="799" y="655" type="qcurve" smooth="yes"/>
      <point x="799" y="668"/>
      <point x="734" y="705"/>
      <point x="676" y="721" type="qcurve" smooth="yes"/>
      <point x="614" y="736"/>
      <point x="614" y="793" type="qcurve" smooth="yes"/>
      <point x="614" y="847"/>
      <point x="686" y="874" type="qcurve" smooth="yes"/>
      <point x="719" y="888"/>
      <point x="824" y="950"/>
      <point x="850" y="973" type="qcurve" smooth="yes"/>
      <point x="891" y="1008"/>
      <point x="932" y="1008" type="qcurve" smooth="yes"/>
      <point x="964" y="1008"/>
      <point x="1010" y="961"/>
      <point x="1010" y="928" type="qcurve" smooth="yes"/>
      <point x="1010" y="872"/>
      <point x="866" y="801" type="qcurve"/>
      <point x="1016" y="750"/>
      <point x="1016" y="653" type="qcurve" smooth="yes"/>
      <point x="1016" y="580"/>
      <point x="873" y="477"/>
    </contour>
    <contour>
      <point x="633" y="1100" type="move" smooth="yes"/>
    </contour>
    <contour>
      <point x="834" y="-420" type="move" smooth="yes"/>
    </contour>
    <contour>
      <point x="0" y="821" type="move" smooth="yes"/>
    </contour>
  </outline>
</glyph>
<glyph name="thn_D" format="1">
  <advance width="1294"/>
  <unicode hex="078B"/>
  <outline>
    <contour>
      <point x="660" y="-300" type="move" name="Anchor-1"/>
    </contour>
    <contour>
      <point x="570" y="1300" type="move" name="Anchor-0"/>
    </contour>
    <contour>
      <point x="727" y="287" type="qcurve"/>
      <point x="579" y="91"/>
      <point x="43" y="-348"/>
      <point x="-137" y="-348" type="qcurve" smooth="yes"/>
      <point x="-181" y="-348"/>
      <point x="-233" y="-304"/>
      <point x="-233" y="-268" type="qcurve" smooth="yes"/>
      <point x="-233" y="-229"/>
      <point x="-174" y="-182"/>
      <point x="-104" y="-162" type="qcurve" smooth="yes"/>
      <point x="51" y="-114"/>
      <point x="405" y="148"/>
      <point x="551" y="332" type="qcurve"/>
      <point x="504" y="360"/>
      <point x="504" y="414" type="qcurve" smooth="yes"/>
      <point x="504" y="465"/>
      <point x="587" y="522"/>
      <point x="643" y="522" type="qcurve" smooth="yes"/>
      <point x="689" y="522"/>
      <point x="764" y="476"/>
      <point x="772" y="449" type="qcurve"/>
      <point x="819" y="436"/>
      <point x="877" y="436" type="qcurve" smooth="yes"/>
      <point x="1049" y="436"/>
      <point x="1049" y="575" type="qcurve" smooth="yes"/>
      <point x="1049" y="679"/>
      <point x="854" y="717" type="qcurve" smooth="yes"/>
      <point x="780" y="730"/>
      <point x="780" y="795" type="qcurve" smooth="yes"/>
      <point x="780" y="866"/>
      <point x="864" y="881" type="qcurve" smooth="yes"/>
      <point x="899" y="887"/>
      <point x="1044" y="947"/>
      <point x="1085" y="973" type="qcurve" smooth="yes"/>
      <point x="1141" y="1008"/>
      <point x="1182" y="1008" type="qcurve" smooth="yes"/>
      <point x="1218" y="1008"/>
      <point x="1264" y="962"/>
      <point x="1264" y="928" type="qcurve" smooth="yes"/>
      <point x="1264" y="887"/>
      <point x="1163" y="822"/>
      <point x="1069" y="786" type="qcurve"/>
      <point x="1150" y="765"/>
      <point x="1247" y="650"/>
      <point x="1247" y="578" type="qcurve" smooth="yes"/>
      <point x="1247" y="443"/>
      <point x="1027" y="270"/>
      <point x="870" y="270" type="qcurve" smooth="yes"/>
      <point x="790" y="270"/>
    </contour>
    <contour>
      <point x="811" y="1100" type="move" smooth="yes"/>
    </contour>
    <contour>
      <point x="840" y="-381" type="move" smooth="yes"/>
    </contour>
    <contour>
      <point x="809" y="1460" type="move" smooth="yes"/>
    </contour>
    <contour>
      <point x="0" y="821" type="move" smooth="yes"/>
    </contour>
  </outline>
</glyph>
<glyph name="thn_T" format="1">
  <advance width="1153"/>
  <unicode hex="078C"/>
  <outline>
    <contour>
      <point x="630" y="-300" type="move" name="Anchor-1"/>
    </contour>
    <contour>
      <point x="625" y="1300" type="move" name="Anchor-0"/>
    </contour>
    <contour>
      <point x="442" y="401" type="qcurve"/>
      <point x="307" y="283"/>
      <point x="307" y="229" type="qcurve" smooth="yes"/>
      <point x="307" y="214"/>
      <point x="356" y="182"/>
      <point x="438" y="145" type="qcurve" smooth="yes"/>
      <point x="538" y="102"/>
      <point x="627" y="19"/>
      <point x="627" y="-35" type="qcurve" smooth="yes"/>
      <point x="627" y="-133"/>
      <point x="208" y="-348"/>
      <point x="47" y="-348" type="qcurve" smooth="yes"/>
      <point x="-20" y="-348"/>
      <point x="-94" y="-298"/>
      <point x="-94" y="-254" type="qcurve" smooth="yes"/>
      <point x="-94" y="-168"/>
      <point x="45" y="-158" type="qcurve" smooth="yes"/>
      <point x="158" y="-150"/>
      <point x="375" y="-75"/>
      <point x="375" y="-49" type="qcurve" smooth="yes"/>
      <point x="375" y="-36"/>
      <point x="342" y="-17"/>
      <point x="291" y="4" type="qcurve" smooth="yes"/>
      <point x="163" y="56"/>
      <point x="84" y="137"/>
      <point x="84" y="205" type="qcurve" smooth="yes"/>
      <point x="84" y="337"/>
      <point x="643" y="827"/>
      <point x="868" y="827" type="qcurve" smooth="yes"/>
      <point x="981" y="827"/>
      <point x="1124" y="675"/>
      <point x="1124" y="561" type="qcurve" smooth="yes"/>
      <point x="1124" y="409"/>
      <point x="924" y="203"/>
      <point x="745" y="203" type="qcurve" smooth="yes"/>
      <point x="667" y="203"/>
      <point x="501" y="311"/>
    </contour>
    <contour>
      <point x="571" y="512" type="qcurve"/>
      <point x="605" y="454"/>
      <point x="718" y="377"/>
      <point x="766" y="377" type="qcurve" smooth="yes"/>
      <point x="843" y="377"/>
      <point x="930" y="466"/>
      <point x="930" y="543" type="qcurve" smooth="yes"/>
      <point x="930" y="593"/>
      <point x="881" y="655"/>
      <point x="840" y="655" type="qcurve" smooth="yes"/>
      <point x="725" y="655"/>
    </contour>
    <contour>
      <point x="625" y="1100" type="move" smooth="yes"/>
    </contour>
    <contour>
      <point x="890" y="-471" type="move" smooth="yes"/>
    </contour>
    <contour>
      <point x="625" y="1400" type="move" smooth="yes"/>
    </contour>
    <contour>
      <point x="743" y="1530" type="move" smooth="yes"/>
    </contour>
  </outline>
</glyph>
<glyph name="thn_LL" format="1">
  <advance width="1163"/>
  <unicode hex="078D"/>
  <outline>
    <contour>
      <point x="550" y="-220" type="move" name="Anchor-1"/>
    </contour>
    <contour>
      <point x="526" y="1300" type="move" name="Anchor-0"/>
    </contour>
    <contour>
      <point x="915" y="649" type="qcurve"/>
      <point x="815" y="633"/>
      <point x="678" y="633" type="qcurve" smooth="yes"/>
      <point x="594" y="633"/>
      <point x="502" y="694"/>
      <point x="502" y="741" type="qcurve" smooth="yes"/>
      <point x="502" y="788"/>
      <point x="545" y="819" type="qcurve" smooth="yes"/>
      <point x="656" y="899"/>
      <point x="739" y="993" type="qcurve" smooth="yes"/>
      <point x="777" y="1036"/>
      <point x="829" y="1036" type="qcurve" smooth="yes"/>
      <point x="864" y="1036"/>
      <point x="907" y="987"/>
      <point x="907" y="952" type="qcurve" smooth="yes"/>
      <point x="907" y="885"/>
      <point x="768" y="797" type="qcurve"/>
      <point x="822" y="797"/>
      <point x="962" y="811" type="qcurve" smooth="yes"/>
      <point x="1059" y="821"/>
      <point x="1085" y="821" type="qcurve" smooth="yes"/>
      <point x="1116" y="821"/>
      <point x="1155" y="777"/>
      <point x="1155" y="745" type="qcurve" smooth="yes"/>
      <point x="1155" y="676"/>
      <point x="702" y="154"/>
      <point x="8" y="-348"/>
      <point x="-133" y="-348" type="qcurve" smooth="yes"/>
      <point x="-181" y="-348"/>
      <point x="-238" y="-300"/>
      <point x="-238" y="-260" type="qcurve" smooth="yes"/>
      <point x="-238" y="-196"/>
      <point x="-147" y="-162" type="qcurve" smooth="yes"/>
      <point x="148" y="-49"/>
      <point x="746" y="425"/>
    </contour>
    <contour>
      <point x="526" y="1140" type="move" smooth="yes"/>
    </contour>
    <contour>
      <point x="928" y="-293" type="move" smooth="yes"/>
    </contour>
  </outline>
</glyph>
<glyph name="thn_G" format="1">
  <advance width="1171"/>
  <unicode hex="078E"/>
  <outline>
    <contour>
      <point x="555" y="-300" type="move" name="Anchor-1"/>
    </contour>
    <contour>
      <point x="600" y="1300" type="move" name="Anchor-0"/>
    </contour>
    <contour>
      <point x="305" y="0" type="qcurve" smooth="yes"/>
      <point x="476" y="0"/>
      <point x="715" y="97"/>
      <point x="715" y="172" type="qcurve" smooth="yes"/>
      <point x="715" y="200"/>
      <point x="621" y="253"/>
      <point x="512" y="295" type="qcurve" smooth="yes"/>
      <point x="358" y="353"/>
      <point x="358" y="471" type="qcurve" smooth="yes"/>
      <point x="358" y="539"/>
      <point x="524" y="656"/>
      <point x="933" y="823"/>
      <point x="1047" y="823" type="qcurve" smooth="yes"/>
      <point x="1093" y="823"/>
      <point x="1147" y="775"/>
      <point x="1147" y="739" type="qcurve" smooth="yes"/>
      <point x="1147" y="647"/>
      <point x="1034" y="637" type="qcurve" smooth="yes"/>
      <point x="896" y="626"/>
      <point x="561" y="501"/>
      <point x="561" y="467" type="qcurve" smooth="yes"/>
      <point x="561" y="457"/>
      <point x="582" y="443"/>
      <point x="653" y="417" type="qcurve" smooth="yes"/>
      <point x="813" y="358"/>
      <point x="907" y="251"/>
      <point x="907" y="197" type="qcurve" smooth="yes"/>
      <point x="907" y="35"/>
      <point x="520" y="-184"/>
      <point x="242" y="-184" type="qcurve" smooth="yes"/>
      <point x="106" y="-184"/>
      <point x="-78" y="-100"/>
      <point x="-78" y="-39" type="qcurve" smooth="yes"/>
      <point x="-78" y="-3"/>
      <point x="-32" y="49"/>
      <point x="6" y="49" type="qcurve" smooth="yes"/>
      <point x="28" y="49"/>
      <point x="81" y="34" type="qcurve" smooth="yes"/>
      <point x="198" y="0"/>
    </contour>
    <contour>
      <point x="630" y="1100" type="move" smooth="yes"/>
    </contour>
    <contour>
      <point x="911" y="-348" type="move" smooth="yes"/>
    </contour>
    <contour>
      <point x="653" y="1400" type="move" smooth="yes"/>
    </contour>
  </outline>
</glyph>
<glyph name="thn_GN" format="1">
  <advance width="1378"/>
  <unicode hex="078F"/>
  <outline>
    <contour>
      <point x="715" y="-360" type="move" name="Anchor-1"/>
    </contour>
    <contour>
      <point x="720" y="1300" type="move" name="Anchor-0"/>
    </contour>
    <contour>
      <point x="815" y="608" type="qcurve"/>
      <point x="732" y="542"/>
      <point x="561" y="436" type="qcurve" smooth="yes"/>
      <point x="223" y="230"/>
      <point x="223" y="27" type="qcurve" smooth="yes"/>
      <point x="223" y="-69"/>
      <point x="365" y="-186"/>
      <point x="496" y="-186" type="qcurve" smooth="yes"/>
      <point x="608" y="-186"/>
      <point x="759" y="-137" type="qcurve" smooth="yes"/>
      <point x="832" y="-113"/>
      <point x="858" y="-113" type="qcurve" smooth="yes"/>
      <point x="891" y="-113"/>
      <point x="932" y="-159"/>
      <point x="932" y="-195" type="qcurve" smooth="yes"/>
      <point x="932" y="-259"/>
      <point x="653" y="-352"/>
      <point x="494" y="-352" type="qcurve" smooth="yes"/>
      <point x="278" y="-352"/>
      <point x="41" y="-148"/>
      <point x="41" y="20" type="qcurve" smooth="yes"/>
      <point x="41" y="298"/>
      <point x="406" y="524" type="qcurve"/>
      <point x="299" y="573"/>
      <point x="299" y="664" type="qcurve" smooth="yes"/>
      <point x="299" y="723"/>
      <point x="381" y="807"/>
      <point x="453" y="807" type="qcurve" smooth="yes"/>
      <point x="479" y="807"/>
      <point x="530" y="782"/>
      <point x="564" y="736" type="qcurve" smooth="yes"/>
      <point x="598" y="690"/>
      <point x="623" y="690" type="qcurve" smooth="yes"/>
      <point x="647" y="690"/>
      <point x="674" y="704"/>
      <point x="702" y="729" type="qcurve" smooth="yes"/>
      <point x="797" y="821"/>
      <point x="840" y="821" type="qcurve" smooth="yes"/>
      <point x="862" y="821"/>
      <point x="906" y="788"/>
      <point x="944" y="723" type="qcurve" smooth="yes"/>
      <point x="980" y="662"/>
      <point x="1001" y="641" type="qcurve"/>
      <point x="1092" y="671"/>
      <point x="1149" y="774" type="qcurve" smooth="yes"/>
      <point x="1204" y="872"/>
      <point x="1260" y="872" type="qcurve" smooth="yes"/>
      <point x="1354" y="872"/>
      <point x="1354" y="778" type="qcurve" smooth="yes"/>
      <point x="1354" y="689"/>
      <point x="1102" y="455"/>
      <point x="979" y="455" type="qcurve" smooth="yes"/>
      <point x="942" y="455"/>
      <point x="871" y="523"/>
    </contour>
    <contour>
      <point x="979" y="-537" type="move" smooth="yes"/>
    </contour>
    <contour>
      <point x="840" y="1100" type="move" smooth="yes"/>
    </contour>
  </outline>
</glyph>
<glyph name="thn_S" format="1">
  <advance width="2195"/>
  <unicode hex="0790"/>
  <outline>
    <contour>
      <point x="1110" y="-220" type="move" name="Anchor-1"/>
    </contour>
    <contour>
      <point x="1120" y="1300" type="move" name="Anchor-0"/>
    </contour>
    <contour>
      <point x="539" y="446" type="qcurve"/>
      <point x="504" y="300"/>
      <point x="290" y="94"/>
      <point x="184" y="94" type="qcurve" smooth="yes"/>
      <point x="137" y="94"/>
      <point x="80" y="142"/>
      <point x="80" y="182" type="qcurve" smooth="yes"/>
      <point x="80" y="258"/>
      <point x="182" y="276" type="qcurve" smooth="yes"/>
      <point x="239" y="287"/>
      <point x="341" y="414"/>
      <point x="354" y="489" type="qcurve"/>
      <point x="299" y="517"/>
      <point x="231" y="625"/>
      <point x="231" y="682" type="qcurve" smooth="yes"/>
      <point x="231" y="740"/>
      <point x="309" y="821"/>
      <point x="365" y="821" type="qcurve" smooth="yes"/>
      <point x="440" y="821"/>
      <point x="550" y="707"/>
      <point x="563" y="621" type="qcurve"/>
      <point x="794" y="586"/>
      <point x="1130" y="586" type="qcurve" smooth="yes"/>
      <point x="1553" y="586"/>
      <point x="1905" y="777"/>
      <point x="1964" y="903" type="qcurve" smooth="yes"/>
      <point x="2004" y="989"/>
      <point x="2083" y="989" type="qcurve" smooth="yes"/>
      <point x="2122" y="989"/>
      <point x="2175" y="943"/>
      <point x="2175" y="905" type="qcurve" smooth="yes"/>
      <point x="2175" y="811"/>
      <point x="1927" y="549"/>
      <point x="1503" y="414"/>
      <point x="1104" y="414" type="qcurve" smooth="yes"/>
      <point x="751" y="414"/>
    </contour>
    <contour>
      <point x="1190" y="1100" type="move" smooth="yes"/>
    </contour>
    <contour>
      <point x="1473" y="205" type="move" smooth="yes"/>
    </contour>
    <contour>
      <point x="1190" y="1400" type="move" smooth="yes"/>
    </contour>
    <contour>
      <point x="1190" y="1150" type="move" smooth="yes"/>
    </contour>
    <contour>
      <point x="1480" y="-49" type="move" smooth="yes"/>
    </contour>
  </outline>
</glyph>
<glyph name="thn_DD" format="1">
  <advance width="856"/>
  <unicode hex="0791"/>
  <outline>
    <contour>
      <point x="465" y="-300" type="move" name="Anchor-1"/>
    </contour>
    <contour>
      <point x="405" y="1300" type="move" name="Anchor-0"/>
    </contour>
    <contour>
      <point x="250" y="90" type="qcurve"/>
      <point x="260" y="62"/>
      <point x="519" y="10"/>
      <point x="674" y="2" type="qcurve" smooth="yes"/>
      <point x="737" y="-1"/>
      <point x="786" y="-47"/>
      <point x="786" y="-96" type="qcurve" smooth="yes"/>
      <point x="786" y="-180"/>
      <point x="670" y="-180" type="qcurve" smooth="yes"/>
      <point x="438" y="-180"/>
      <point x="31" y="-21"/>
      <point x="31" y="76" type="qcurve" smooth="yes"/>
      <point x="31" y="184"/>
      <point x="211" y="252" type="qcurve" smooth="yes"/>
      <point x="357" y="306"/>
      <point x="506" y="387"/>
      <point x="506" y="403" type="qcurve" smooth="yes"/>
      <point x="506" y="423"/>
      <point x="295" y="479" type="qcurve" smooth="yes"/>
      <point x="266" y="487"/>
      <point x="227" y="530"/>
      <point x="227" y="559" type="qcurve" smooth="yes"/>
      <point x="227" y="594"/>
      <point x="273" y="655"/>
      <point x="384" y="714" type="qcurve" smooth="yes"/>
      <point x="580" y="817" type="line" smooth="yes"/>
      <point x="663" y="862"/>
      <point x="711" y="862" type="qcurve" smooth="yes"/>
      <point x="742" y="862"/>
      <point x="793" y="806"/>
      <point x="793" y="774" type="qcurve" smooth="yes"/>
      <point x="793" y="734"/>
      <point x="678" y="663"/>
      <point x="477" y="573" type="qcurve"/>
      <point x="615" y="538"/>
      <point x="743" y="466"/>
      <point x="743" y="403" type="qcurve" smooth="yes"/>
      <point x="743" y="327"/>
      <point x="490" y="186"/>
    </contour>
    <contour>
      <point x="901" y="-354" type="move" smooth="yes"/>
    </contour>
    <contour>
      <point x="432" y="1100" type="move" smooth="yes"/>
    </contour>
  </outline>
</glyph>
<glyph name="thn_Z" format="1">
  <advance width="1135"/>
  <unicode hex="0792"/>
  <outline>
    <contour>
      <point x="600" y="-360" type="move" name="Anchor-1"/>
    </contour>
    <contour>
      <point x="595" y="1300" type="move" name="Anchor-0"/>
    </contour>
    <contour>
      <point x="569" y="750" type="qcurve"/>
      <point x="701" y="840"/>
      <point x="924" y="942"/>
      <point x="985" y="942" type="qcurve" smooth="yes"/>
      <point x="1030" y="942"/>
      <point x="1083" y="898"/>
      <point x="1083" y="860" type="qcurve" smooth="yes"/>
      <point x="1083" y="787"/>
      <point x="961" y="756" type="qcurve" smooth="yes"/>
      <point x="822" y="720"/>
      <point x="696" y="639" type="qcurve"/>
      <point x="750" y="607"/>
      <point x="793" y="598" type="qcurve" smooth="yes"/>
      <point x="838" y="587"/>
      <point x="895" y="533"/>
      <point x="895" y="500" type="qcurve" smooth="yes"/>
      <point x="895" y="403"/>
      <point x="760" y="403" type="qcurve" smooth="yes"/>
      <point x="656" y="403"/>
      <point x="502" y="473" type="qcurve"/>
      <point x="285" y="235"/>
      <point x="285" y="12" type="qcurve" smooth="yes"/>
      <point x="285" y="-80"/>
      <point x="432" y="-186"/>
      <point x="565" y="-186" type="qcurve" smooth="yes"/>
      <point x="673" y="-186"/>
      <point x="850" y="-123" type="qcurve" smooth="yes"/>
      <point x="938" y="-92"/>
      <point x="965" y="-92" type="qcurve" smooth="yes"/>
      <point x="998" y="-92"/>
      <point x="1038" y="-138"/>
      <point x="1038" y="-174" type="qcurve" smooth="yes"/>
      <point x="1038" y="-239"/>
      <point x="712" y="-352"/>
      <point x="563" y="-352" type="qcurve" smooth="yes"/>
      <point x="349" y="-352"/>
      <point x="98" y="-149"/>
      <point x="98" y="12" type="qcurve" smooth="yes"/>
      <point x="98" y="289"/>
      <point x="340" y="555" type="qcurve"/>
      <point x="256" y="607"/>
      <point x="256" y="688" type="qcurve" smooth="yes"/>
      <point x="256" y="742"/>
      <point x="340" y="821"/>
      <point x="397" y="821" type="qcurve" smooth="yes"/>
      <point x="490" y="821"/>
    </contour>
    <contour>
      <point x="973" y="-582" type="move" smooth="yes"/>
    </contour>
    <contour>
      <point x="662" y="1100" type="move" smooth="yes"/>
    </contour>
  </outline>
</glyph>
<glyph name="thn_TT" format="1">
  <advance width="1526"/>
  <unicode hex="0793"/>
  <outline>
    <contour>
      <point x="735" y="-445" type="move" name="Anchor-1"/>
    </contour>
    <contour>
      <point x="820" y="1300" type="move" name="Anchor-0"/>
    </contour>
    <contour>
      <point x="539" y="68" type="qcurve"/>
      <point x="428" y="-47"/>
      <point x="428" y="-139" type="qcurve" smooth="yes"/>
      <point x="428" y="-295"/>
      <point x="782" y="-295" type="qcurve" smooth="yes"/>
      <point x="906" y="-295"/>
      <point x="1059" y="-234" type="qcurve" smooth="yes"/>
      <point x="1129" y="-207"/>
      <point x="1155" y="-207" type="qcurve" smooth="yes"/>
      <point x="1188" y="-207"/>
      <point x="1229" y="-253"/>
      <point x="1229" y="-289" type="qcurve" smooth="yes"/>
      <point x="1229" y="-354"/>
      <point x="928" y="-461"/>
      <point x="770" y="-461" type="qcurve" smooth="yes"/>
      <point x="530" y="-461"/>
      <point x="242" y="-289"/>
      <point x="242" y="-137" type="qcurve" smooth="yes"/>
      <point x="242" y="-21"/>
      <point x="367" y="102" type="qcurve"/>
      <point x="267" y="138"/>
      <point x="131" y="330"/>
      <point x="131" y="449" type="qcurve" smooth="yes"/>
      <point x="131" y="597"/>
      <point x="360" y="821"/>
      <point x="528" y="821" type="qcurve" smooth="yes"/>
      <point x="619" y="821"/>
      <point x="760" y="713"/>
      <point x="772" y="639" type="qcurve"/>
      <point x="845" y="735"/>
      <point x="1065" y="856"/>
      <point x="1176" y="856" type="qcurve" smooth="yes"/>
      <point x="1300" y="856"/>
      <point x="1458" y="698"/>
      <point x="1458" y="578" type="qcurve" smooth="yes"/>
      <point x="1458" y="361"/>
      <point x="903" y="68"/>
    </contour>
    <contour>
      <point x="674" y="238" type="qcurve"/>
      <point x="906" y="248"/>
      <point x="1260" y="452"/>
      <point x="1260" y="567" type="qcurve" smooth="yes"/>
      <point x="1260" y="617"/>
      <point x="1199" y="682"/>
      <point x="1147" y="682" type="qcurve" smooth="yes"/>
      <point x="1054" y="682"/>
      <point x="848" y="487"/>
    </contour>
    <contour>
      <point x="475" y="244" type="qcurve"/>
      <point x="545" y="315"/>
      <point x="633" y="491"/>
      <point x="633" y="547" type="qcurve" smooth="yes"/>
      <point x="633" y="590"/>
      <point x="567" y="649"/>
      <point x="510" y="649" type="qcurve" smooth="yes"/>
      <point x="431" y="649"/>
      <point x="319" y="523"/>
      <point x="319" y="438" type="qcurve" smooth="yes"/>
      <point x="319" y="369"/>
      <point x="408" y="260"/>
    </contour>
    <contour>
      <point x="1049" y="-610" type="move" smooth="yes"/>
    </contour>
    <contour>
      <point x="840" y="1100" type="move" smooth="yes"/>
    </contour>
  </outline>
</glyph>
<glyph name="thn_Y" format="1">
  <advance width="1458"/>
  <unicode hex="0794"/>
  <outline>
    <contour>
      <point x="680" y="-220" type="move" name="Anchor-1"/>
    </contour>
    <contour>
      <point x="720" y="1300" type="move" name="Anchor-0"/>
    </contour>
    <contour>
      <point x="768" y="500" type="qcurve"/>
      <point x="614" y="252"/>
      <point x="224" y="-74"/>
      <point x="30" y="-186"/>
      <point x="-35" y="-186" type="qcurve" smooth="yes"/>
      <point x="-79" y="-186"/>
      <point x="-133" y="-140"/>
      <point x="-133" y="-102" type="qcurve" smooth="yes"/>
      <point x="-133" y="-34"/>
      <point x="-31" y="10" type="qcurve" smooth="yes"/>
      <point x="135" y="82"/>
      <point x="463" y="358"/>
      <point x="588" y="543" type="qcurve"/>
      <point x="504" y="591"/>
      <point x="504" y="678" type="qcurve" smooth="yes"/>
      <point x="504" y="736"/>
      <point x="589" y="821"/>
      <point x="653" y="821" type="qcurve" smooth="yes"/>
      <point x="715" y="821"/>
      <point x="799" y="743"/>
      <point x="799" y="680" type="qcurve"/>
      <point x="940" y="700"/>
      <point x="1108" y="782" type="qcurve" smooth="yes"/>
      <point x="1189" y="821"/>
      <point x="1229" y="821" type="qcurve" smooth="yes"/>
      <point x="1297" y="821"/>
      <point x="1376" y="671"/>
      <point x="1376" y="561" type="qcurve" smooth="yes"/>
      <point x="1376" y="378"/>
      <point x="1205" y="51"/>
      <point x="1102" y="51" type="qcurve" smooth="yes"/>
      <point x="1056" y="51"/>
      <point x="999" y="95"/>
      <point x="999" y="129" type="qcurve" smooth="yes"/>
      <point x="999" y="184"/>
      <point x="1077" y="258" type="qcurve" smooth="yes"/>
      <point x="1128" y="305"/>
      <point x="1196" y="481"/>
      <point x="1196" y="559" type="qcurve" smooth="yes"/>
      <point x="1196" y="600"/>
      <point x="1182" y="639" type="qcurve"/>
      <point x="1000" y="543"/>
    </contour>
    <contour>
      <point x="918" y="1100" type="move" smooth="yes"/>
    </contour>
    <contour>
      <point x="928" y="-270" type="move" smooth="yes"/>
    </contour>
  </outline>
</glyph>
<glyph name="thn_P" format="1">
  <advance width="1057"/>
  <unicode hex="0795"/>
  <outline>
    <contour>
      <point x="580" y="-300" type="move" name="Anchor-1"/>
    </contour>
    <contour>
      <point x="420" y="1300" type="move" name="Anchor-0"/>
    </contour>
    <component base="thn_F"/>
    <component base="DotBelow" xOffset="297" yOffset="-309"/>
  </outline>
</glyph>
<glyph name="thn_J" format="1">
  <advance width="1243"/>
  <unicode hex="0796"/>
  <outline>
    <contour>
      <point x="660" y="-445" type="move" name="Anchor-1"/>
    </contour>
    <contour>
      <point x="480" y="1300" type="move" name="Anchor-0"/>
    </contour>
    <contour>
      <point x="956" y="791" type="qcurve"/>
      <point x="1135" y="741"/>
      <point x="1135" y="596" type="qcurve" smooth="yes"/>
      <point x="1135" y="460"/>
      <point x="914" y="291"/>
      <point x="729" y="291" type="qcurve" smooth="yes"/>
      <point x="690" y="291"/>
      <point x="657" y="294" type="qcurve" smooth="yes"/>
      <point x="594" y="301" type="line" smooth="yes"/>
      <point x="570" y="301"/>
      <point x="368" y="212"/>
      <point x="253" y="143"/>
      <point x="167" y="69"/>
      <point x="109" y="-9"/>
      <point x="80" y="-88"/>
      <point x="80" y="-127" type="qcurve" smooth="yes"/>
      <point x="80" y="-204"/>
      <point x="226" y="-295"/>
      <point x="356" y="-295" type="qcurve" smooth="yes"/>
      <point x="458" y="-295"/>
      <point x="579" y="-252" type="qcurve" smooth="yes"/>
      <point x="643" y="-229"/>
      <point x="672" y="-229" type="qcurve" smooth="yes"/>
      <point x="706" y="-229"/>
      <point x="750" y="-275"/>
      <point x="750" y="-309" type="qcurve" smooth="yes"/>
      <point x="750" y="-372"/>
      <point x="505" y="-461"/>
      <point x="354" y="-461" type="qcurve" smooth="yes"/>
      <point x="143" y="-461"/>
      <point x="-102" y="-272"/>
      <point x="-102" y="-131" type="qcurve" smooth="yes"/>
      <point x="-102" y="26"/>
      <point x="153" y="292"/>
      <point x="399" y="377" type="qcurve"/>
      <point x="367" y="396"/>
      <point x="367" y="442" type="qcurve" smooth="yes"/>
      <point x="367" y="496"/>
      <point x="450" y="557"/>
      <point x="520" y="557" type="qcurve" smooth="yes"/>
      <point x="569" y="557"/>
      <point x="637" y="494"/>
      <point x="637" y="467" type="qcurve"/>
      <point x="675" y="457"/>
      <point x="735" y="457" type="qcurve" smooth="yes"/>
      <point x="936" y="457"/>
      <point x="936" y="594" type="qcurve" smooth="yes"/>
      <point x="936" y="693"/>
      <point x="745" y="721" type="qcurve" smooth="yes"/>
      <point x="674" y="731"/>
      <point x="674" y="799" type="qcurve" smooth="yes"/>
      <point x="674" y="866"/>
      <point x="752" y="885" type="qcurve" smooth="yes"/>
      <point x="793" y="894"/>
      <point x="936" y="948"/>
      <point x="973" y="971" type="qcurve" smooth="yes"/>
      <point x="1029" y="1006"/>
      <point x="1069" y="1006" type="qcurve" smooth="yes"/>
      <point x="1106" y="1006"/>
      <point x="1155" y="959"/>
      <point x="1155" y="926" type="qcurve" smooth="yes"/>
      <point x="1155" y="884"/>
      <point x="1052" y="822"/>
    </contour>
    <contour>
      <point x="934" y="-594" type="move" smooth="yes"/>
    </contour>
    <contour>
      <point x="700" y="1100" type="move" smooth="yes"/>
    </contour>
    <contour>
      <point x="0" y="821" type="move" smooth="yes"/>
    </contour>
  </outline>
</glyph>
<glyph name="thn_C" format="1">
  <advance width="1153"/>
  <unicode hex="0797"/>
  <outline>
    <contour>
      <point x="630" y="-300" type="move" name="Anchor-1"/>
    </contour>
    <contour>
      <point x="489" y="1300" type="move" name="Anchor-0"/>
    </contour>
    <contour>
      <point x="475" y="442" type="qcurve"/>
      <point x="367" y="341"/>
      <point x="307" y="264"/>
      <point x="307" y="229" type="qcurve" smooth="yes"/>
      <point x="307" y="214"/>
      <point x="356" y="182"/>
      <point x="438" y="145" type="qcurve" smooth="yes"/>
      <point x="538" y="102"/>
      <point x="627" y="19"/>
      <point x="627" y="-35" type="qcurve" smooth="yes"/>
      <point x="627" y="-133"/>
      <point x="208" y="-348"/>
      <point x="47" y="-348" type="qcurve" smooth="yes"/>
      <point x="-20" y="-348"/>
      <point x="-94" y="-298"/>
      <point x="-94" y="-254" type="qcurve" smooth="yes"/>
      <point x="-94" y="-168"/>
      <point x="45" y="-158" type="qcurve" smooth="yes"/>
      <point x="158" y="-150"/>
      <point x="375" y="-75"/>
      <point x="375" y="-49" type="qcurve" smooth="yes"/>
      <point x="375" y="-36"/>
      <point x="342" y="-17"/>
      <point x="291" y="4" type="qcurve" smooth="yes"/>
      <point x="163" y="56"/>
      <point x="84" y="137"/>
      <point x="84" y="205" type="qcurve" smooth="yes"/>
      <point x="84" y="264"/>
      <point x="181" y="408"/>
      <point x="293" y="514" type="qcurve" smooth="yes"/>
      <point x="372" y="589"/>
      <point x="509" y="690"/>
      <point x="561" y="720" type="qcurve" smooth="yes"/>
      <point x="578" y="731"/>
      <point x="651" y="797" type="qcurve" smooth="yes"/>
      <point x="811" y="945"/>
      <point x="983" y="1147"/>
      <point x="1086" y="1306" type="qcurve" smooth="yes"/>
      <point x="1123" y="1364"/>
      <point x="1176" y="1393"/>
      <point x="1204" y="1393" type="qcurve" smooth="yes"/>
      <point x="1238" y="1393"/>
      <point x="1276" y="1354"/>
      <point x="1276" y="1323" type="qcurve" smooth="yes"/>
      <point x="1276" y="1255"/>
      <point x="1080" y="987"/>
      <point x="903" y="817" type="qcurve"/>
      <point x="1009" y="803"/>
      <point x="1124" y="668"/>
      <point x="1124" y="567" type="qcurve" smooth="yes"/>
      <point x="1124" y="423"/>
      <point x="892" y="205"/>
      <point x="750" y="205" type="qcurve" smooth="yes"/>
      <point x="641" y="205"/>
      <point x="484" y="332"/>
    </contour>
    <contour>
      <point x="840" y="657" type="qcurve" smooth="yes"/>
      <point x="801" y="657"/>
      <point x="688" y="606"/>
      <point x="667" y="582"/>
      <point x="643" y="519"/>
      <point x="643" y="481" type="qcurve" smooth="yes"/>
      <point x="643" y="430"/>
      <point x="701" y="369"/>
      <point x="745" y="369" type="qcurve" smooth="yes"/>
      <point x="813" y="369"/>
      <point x="930" y="482"/>
      <point x="930" y="555" type="qcurve" smooth="yes"/>
      <point x="930" y="657"/>
    </contour>
    <contour>
      <point x="922" y="-465" type="move" smooth="yes"/>
    </contour>
    <contour>
      <point x="516" y="1100" type="move" smooth="yes"/>
    </contour>
  </outline>
</glyph>
<glyph name="uni0798" format="1">
  <advance width="1153"/>
  <unicode hex="0798"/>
  <outline>
    <contour>
      <point x="630" y="-300" type="move" name="Anchor-1"/>
    </contour>
    <contour>
      <point x="625" y="1450" type="move" name="Anchor-0"/>
    </contour>
    <component base="thn_T"/>
    <component base="ThreeDots" xOffset="489" yOffset="870"/>
  </outline>
</glyph>
<glyph name="uni0799" format="1">
  <advance width="1096"/>
  <unicode hex="0799"/>
  <outline>
    <contour>
      <point x="520" y="-220" type="move" name="Anchor-1"/>
    </contour>
    <contour>
      <point x="589" y="1300" type="move" name="Anchor-0"/>
    </contour>
    <component base="thn_H"/>
    <component base="DotBelow" xOffset="630" yOffset="106"/>
  </outline>
</glyph>
<glyph name="uni079A" format="1">
  <advance width="1096"/>
  <unicode hex="079A"/>
  <outline>
    <contour>
      <point x="520" y="-220" type="move" name="Anchor-1"/>
    </contour>
    <contour>
      <point x="589" y="1300" type="move" name="Anchor-0"/>
    </contour>
    <component base="thn_H"/>
    <component base="DotAbove" xOffset="186" yOffset="473"/>
  </outline>
</glyph>
<glyph name="uni079B" format="1">
  <advance width="1294"/>
  <unicode hex="079B"/>
  <outline>
    <contour>
      <point x="660" y="-300" type="move" name="Anchor-1"/>
    </contour>
    <contour>
      <point x="570" y="1300" type="move" name="Anchor-0"/>
    </contour>
    <component base="thn_D"/>
    <component base="DotAbove" xOffset="522" yOffset="967"/>
  </outline>
</glyph>
<glyph name="uni079C" format="1">
  <advance width="1513"/>
  <unicode hex="079C"/>
  <outline>
    <contour>
      <point x="780" y="-220" type="move" name="Anchor-1"/>
    </contour>
    <contour>
      <point x="690" y="1300" type="move" name="Anchor-0"/>
    </contour>
    <component base="thn_R"/>
    <component base="DotAbove" xOffset="665" yOffset="895"/>
  </outline>
</glyph>
<glyph name="uni079D" format="1">
  <advance width="2195"/>
  <unicode hex="079D"/>
  <outline>
    <contour>
      <point x="1110" y="-220" type="move" name="Anchor-1"/>
    </contour>
    <contour>
      <point x="1120" y="1300" type="move" name="Anchor-0"/>
    </contour>
    <component base="thn_S"/>
    <component base="ThreeDots" xOffset="813" yOffset="676"/>
  </outline>
</glyph>
<glyph name="uni079E" format="1">
  <advance width="2195"/>
  <unicode hex="079E"/>
  <outline>
    <contour>
      <point x="1110" y="-220" type="move" name="Anchor-1"/>
    </contour>
    <contour>
      <point x="1120" y="1300" type="move" name="Anchor-0"/>
    </contour>
    <component base="thn_S"/>
    <component base="DotBelow" xOffset="813" yOffset="90"/>
  </outline>
</glyph>
<glyph name="uni079F" format="1">
  <advance width="2195"/>
  <unicode hex="079F"/>
  <outline>
    <contour>
      <point x="1110" y="-220" type="move" name="Anchor-1"/>
    </contour>
    <contour>
      <point x="1120" y="1300" type="move" name="Anchor-0"/>
    </contour>
    <component base="thn_S"/>
    <component base="DotAbove" xOffset="813" yOffset="696"/>
  </outline>
</glyph>
<glyph name="uni07A0" format="1">
  <advance width="1153"/>
  <unicode hex="07A0"/>
  <outline>
    <contour>
      <point x="630" y="-300" type="move" name="Anchor-1"/>
    </contour>
    <contour>
      <point x="625" y="1300" type="move" name="Anchor-0"/>
    </contour>
    <component base="thn_T"/>
    <component base="DotBelow" xOffset="542" yOffset="-119"/>
  </outline>
</glyph>
<glyph name="uni07A1" format="1">
  <advance width="1153"/>
  <unicode hex="07A1"/>
  <outline>
    <contour>
      <point x="630" y="-300" type="move" name="Anchor-1"/>
    </contour>
    <contour>
      <point x="625" y="1380" type="move" name="Anchor-0"/>
    </contour>
    <component base="thn_T"/>
    <component base="DotAbove" xOffset="512" yOffset="922"/>
  </outline>
</glyph>
<glyph name="uni07A2" format="1">
  <advance width="1130"/>
  <unicode hex="07A2"/>
  <outline>
    <contour>
      <point x="540" y="-300" type="move" name="Anchor-1"/>
    </contour>
    <contour>
      <point x="595" y="1300" type="move" name="Anchor-0"/>
    </contour>
    <component base="thn_Alifu"/>
    <component base="DotBelow" xOffset="188" yOffset="-207"/>
  </outline>
</glyph>
<glyph name="uni07A3" format="1">
  <advance width="1130"/>
  <unicode hex="07A3"/>
  <outline>
    <contour>
      <point x="540" y="-220" type="move" name="Anchor-1"/>
    </contour>
    <contour>
      <point x="595" y="1300" type="move" name="Anchor-0"/>
    </contour>
    <component base="thn_Alifu"/>
    <component base="DotAbove" xOffset="114" yOffset="637"/>
  </outline>
</glyph>
<glyph name="uni07A4" format="1">
  <advance width="1171"/>
  <unicode hex="07A4"/>
  <outline>
    <contour>
      <point x="555" y="-300" type="move" name="Anchor-1"/>
    </contour>
    <contour>
      <point x="600" y="1380" type="move" name="Anchor-0"/>
    </contour>
    <component base="thn_G"/>
    <component base="TwoDots" xOffset="413" yOffset="905"/>
  </outline>
</glyph>
<glyph name="uni07A5" format="1">
  <advance width="903"/>
  <unicode hex="07A5"/>
  <outline>
    <contour>
      <point x="440" y="-220" type="move" name="Anchor-1"/>
    </contour>
    <contour>
      <point x="461" y="1380" type="move" name="Anchor-0"/>
    </contour>
    <component base="thn_V"/>
    <component base="DotAbove" xOffset="223" yOffset="922"/>
  </outline>
</glyph>
<glyph name="uni07A6nsp" format="1">
  <advance width="0"/>
  <unicode hex="07A6"/>
  <outline>
    <contour>
      <point x="310" y="969" type="move" name="_Anchor-0"/>
    </contour>
    <component base="uni07A6"/>
  </outline>
</glyph>
<glyph name="uni07A7nsp" format="1">
  <advance width="0"/>
  <unicode hex="07A7"/>
  <outline>
    <contour>
      <point x="445" y="969" type="move" name="_Anchor-0"/>
    </contour>
    <component base="uni07A7"/>
  </outline>
</glyph>
<glyph name="uni07A8nsp" format="1">
  <advance width="0"/>
  <unicode hex="07A8"/>
  <outline>
    <contour>
      <point x="315" y="0" type="move" name="_Anchor-1"/>
    </contour>
    <component base="uni07A8"/>
  </outline>
</glyph>
<glyph name="uni07A9nsp" format="1">
  <advance width="0"/>
  <unicode hex="07A9"/>
  <outline>
    <contour>
      <point x="510" y="0" type="move" name="_Anchor-1"/>
    </contour>
    <component base="uni07A9"/>
  </outline>
</glyph>
<glyph name="uni07AAnsp" format="1">
  <advance width="0"/>
  <unicode hex="07AA"/>
  <outline>
    <contour>
      <point x="250" y="969" type="move" name="_Anchor-0"/>
    </contour>
    <component base="uni07AA"/>
  </outline>
</glyph>
<glyph name="uni07ABnsp" format="1">
  <advance width="0"/>
  <unicode hex="07AB"/>
  <outline>
    <contour>
      <point x="500" y="969" type="move" name="_Anchor-0"/>
    </contour>
    <component base="uni07AB"/>
  </outline>
</glyph>
<glyph name="uni07ACnsp" format="1">
  <advance width="0"/>
  <unicode hex="07AC"/>
  <outline>
    <contour>
      <point x="280" y="969" type="move" name="_Anchor-0"/>
    </contour>
    <component base="uni07AC"/>
  </outline>
</glyph>
<glyph name="uni07AEnsp" format="1">
  <advance width="0"/>
  <unicode hex="07AE"/>
  <outline>
    <contour>
      <point x="505" y="969" type="move" name="_Anchor-0"/>
    </contour>
    <component base="uni07AE"/>
  </outline>
</glyph>
<glyph name="uni07AFnsp" format="1">
  <advance width="0"/>
  <unicode hex="07AF"/>
  <outline>
    <contour>
      <point x="544" y="969" type="move" name="_Anchor-0"/>
    </contour>
    <component base="uni07AF"/>
  </outline>
</glyph>
<glyph name="uni07B0nsp" format="1">
  <advance width="0"/>
  <unicode hex="07B0"/>
  <outline>
    <contour>
      <point x="350" y="969" type="move" name="_Anchor-0"/>
    </contour>
    <component base="uni07B0"/>
  </outline>
</glyph>
<glyph name="uni07B1" format="1">
  <advance width="903"/>
  <unicode hex="07B1"/>
  <outline>
    <contour>
      <point x="435" y="-445" type="move" name="Anchor-1"/>
    </contour>
    <contour>
      <point x="487" y="1300" type="move" name="Anchor-0"/>
    </contour>
    <contour>
      <point x="494" y="279" type="qcurve"/>
      <point x="486" y="276"/>
      <point x="473" y="276" type="qcurve" smooth="yes"/>
      <point x="349" y="276"/>
      <point x="195" y="400"/>
      <point x="195" y="502" type="qcurve" smooth="yes"/>
      <point x="195" y="633"/>
      <point x="420" y="825"/>
      <point x="569" y="825" type="qcurve" smooth="yes"/>
      <point x="705" y="825"/>
      <point x="864" y="686"/>
      <point x="864" y="563" type="qcurve" smooth="yes"/>
      <point x="864" y="406"/>
      <point x="668" y="168"/>
      <point x="463" y="59" type="qcurve" smooth="yes"/>
      <point x="319" y="-18"/>
      <point x="197" y="-117"/>
      <point x="197" y="-172" type="qcurve" smooth="yes"/>
      <point x="197" y="-295"/>
      <point x="416" y="-295" type="qcurve" smooth="yes"/>
      <point x="468" y="-295"/>
      <point x="579" y="-267"/>
      <point x="653" y="-218" type="qcurve" smooth="yes"/>
      <point x="707" y="-182"/>
      <point x="733" y="-182" type="qcurve" smooth="yes"/>
      <point x="767" y="-182"/>
      <point x="807" y="-228"/>
      <point x="807" y="-264" type="qcurve" smooth="yes"/>
      <point x="807" y="-337"/>
      <point x="573" y="-461"/>
      <point x="414" y="-461" type="qcurve" smooth="yes"/>
      <point x="227" y="-461"/>
      <point x="10" y="-303"/>
      <point x="10" y="-172" type="qcurve" smooth="yes"/>
      <point x="10" y="-64"/>
      <point x="158" y="80"/>
      <point x="356" y="190" type="qcurve" smooth="yes"/>
      <point x="465" y="252"/>
    </contour>
    <contour>
      <point x="674" y="569" type="qcurve" smooth="yes"/>
      <point x="674" y="664"/>
      <point x="561" y="664" type="qcurve" smooth="yes"/>
      <point x="490" y="664"/>
      <point x="385" y="569"/>
      <point x="385" y="522" type="qcurve" smooth="yes"/>
      <point x="385" y="434"/>
      <point x="504" y="434" type="qcurve" smooth="yes"/>
      <point x="570" y="434"/>
      <point x="674" y="527"/>
    </contour>
    <contour>
      <point x="487" y="1100" type="move" smooth="yes"/>
    </contour>
    <contour>
      <point x="856" y="-606" type="move" smooth="yes"/>
    </contour>
  </outline>
</glyph>
<glyph name="endash" format="1">
  <advance width="1126"/>
  <unicode hex="2013"/>
  <outline>
    <contour>
      <point x="184" y="709" type="qcurve" smooth="yes"/>
      <point x="184" y="746"/>
      <point x="247" y="800"/>
      <point x="347" y="813"/>
      <point x="871" y="834"/>
      <point x="995" y="834" type="qcurve" smooth="yes"/>
      <point x="1071" y="834"/>
      <point x="1071" y="760" type="qcurve" smooth="yes"/>
      <point x="1071" y="643"/>
      <point x="975" y="643" type="qcurve" smooth="yes"/>
      <point x="851" y="643"/>
      <point x="442" y="629"/>
      <point x="391" y="623" type="qcurve" smooth="yes"/>
      <point x="306" y="612"/>
      <point x="258" y="612" type="qcurve" smooth="yes"/>
      <point x="184" y="612"/>
    </contour>
  </outline>
</glyph>
<glyph name="emdash" format="1">
  <advance width="1884"/>
  <unicode hex="2014"/>
  <outline>
    <contour>
      <point x="184" y="709" type="qcurve" smooth="yes"/>
      <point x="184" y="751"/>
      <point x="262" y="806"/>
      <point x="331" y="810" type="qcurve" smooth="yes"/>
      <point x="1012" y="824" type="line" smooth="yes"/>
      <point x="1623" y="834"/>
      <point x="1753" y="834" type="qcurve" smooth="yes"/>
      <point x="1829" y="834"/>
      <point x="1829" y="760" type="qcurve" smooth="yes"/>
      <point x="1829" y="643"/>
      <point x="1733" y="643" type="qcurve" smooth="yes"/>
      <point x="1563" y="643"/>
      <point x="437" y="628"/>
      <point x="391" y="623" type="qcurve" smooth="yes"/>
      <point x="306" y="612"/>
      <point x="258" y="612" type="qcurve" smooth="yes"/>
      <point x="184" y="612"/>
    </contour>
  </outline>
</glyph>
<glyph name="quoteleft" format="1">
  <advance width="745"/>
  <unicode hex="2018"/>
  <outline>
    <contour>
      <point x="602" y="1196" type="qcurve"/>
      <point x="653" y="1190"/>
      <point x="717" y="1119"/>
      <point x="717" y="1071" type="qcurve" smooth="yes"/>
      <point x="717" y="1003"/>
      <point x="606" y="897"/>
      <point x="539" y="897" type="qcurve" smooth="yes"/>
      <point x="482" y="897"/>
      <point x="418" y="977"/>
      <point x="418" y="1049" type="qcurve" smooth="yes"/>
      <point x="418" y="1163"/>
      <point x="621" y="1464"/>
      <point x="694" y="1464" type="qcurve" smooth="yes"/>
      <point x="718" y="1464"/>
      <point x="756" y="1429"/>
      <point x="756" y="1407" type="qcurve" smooth="yes"/>
      <point x="756" y="1378"/>
      <point x="730" y="1341"/>
      <point x="688" y="1311" type="qcurve" smooth="yes"/>
      <point x="627" y="1267"/>
    </contour>
  </outline>
</glyph>
<glyph name="quoteright" format="1">
  <advance width="745"/>
  <unicode hex="2019"/>
  <outline>
    <contour>
      <point x="549" y="1165" type="qcurve"/>
      <point x="498" y="1171"/>
      <point x="434" y="1242"/>
      <point x="434" y="1290" type="qcurve" smooth="yes"/>
      <point x="434" y="1360"/>
      <point x="545" y="1464"/>
      <point x="612" y="1464" type="qcurve" smooth="yes"/>
      <point x="669" y="1464"/>
      <point x="733" y="1385"/>
      <point x="733" y="1313" type="qcurve" smooth="yes"/>
      <point x="733" y="1198"/>
      <point x="530" y="897"/>
      <point x="457" y="897" type="qcurve" smooth="yes"/>
      <point x="433" y="897"/>
      <point x="395" y="933"/>
      <point x="395" y="954" type="qcurve" smooth="yes"/>
      <point x="395" y="988"/>
      <point x="427" y="1025"/>
      <point x="463" y="1051" type="qcurve" smooth="yes"/>
      <point x="524" y="1094"/>
    </contour>
  </outline>
</glyph>
<glyph name="quotedblleft" format="1">
  <advance width="1217"/>
  <unicode hex="201C"/>
  <outline>
    <contour>
      <point x="602" y="1196" type="qcurve"/>
      <point x="653" y="1190"/>
      <point x="717" y="1119"/>
      <point x="717" y="1071" type="qcurve" smooth="yes"/>
      <point x="717" y="1003"/>
      <point x="606" y="897"/>
      <point x="539" y="897" type="qcurve" smooth="yes"/>
      <point x="482" y="897"/>
      <point x="418" y="977"/>
      <point x="418" y="1049" type="qcurve" smooth="yes"/>
      <point x="418" y="1163"/>
      <point x="621" y="1464"/>
      <point x="694" y="1464" type="qcurve" smooth="yes"/>
      <point x="718" y="1464"/>
      <point x="756" y="1429"/>
      <point x="756" y="1407" type="qcurve" smooth="yes"/>
      <point x="756" y="1378"/>
      <point x="730" y="1341"/>
      <point x="688" y="1311" type="qcurve" smooth="yes"/>
      <point x="627" y="1267"/>
    </contour>
    <contour>
      <point x="1073" y="1196" type="qcurve"/>
      <point x="1124" y="1190"/>
      <point x="1188" y="1119"/>
      <point x="1188" y="1071" type="qcurve" smooth="yes"/>
      <point x="1188" y="1003"/>
      <point x="1077" y="897"/>
      <point x="1010" y="897" type="qcurve" smooth="yes"/>
      <point x="953" y="897"/>
      <point x="889" y="977"/>
      <point x="889" y="1049" type="qcurve" smooth="yes"/>
      <point x="889" y="1110"/>
      <point x="966" y="1293"/>
      <point x="1113" y="1464"/>
      <point x="1165" y="1464" type="qcurve" smooth="yes"/>
      <point x="1189" y="1464"/>
      <point x="1227" y="1429"/>
      <point x="1227" y="1407" type="qcurve" smooth="yes"/>
      <point x="1227" y="1374"/>
      <point x="1195" y="1337"/>
      <point x="1159" y="1311" type="qcurve" smooth="yes"/>
      <point x="1098" y="1267"/>
    </contour>
  </outline>
</glyph>
<glyph name="quotedblright" format="1">
  <advance width="1217"/>
  <unicode hex="201D"/>
  <outline>
    <contour>
      <point x="549" y="1165" type="qcurve"/>
      <point x="498" y="1171"/>
      <point x="434" y="1242"/>
      <point x="434" y="1290" type="qcurve" smooth="yes"/>
      <point x="434" y="1360"/>
      <point x="545" y="1464"/>
      <point x="612" y="1464" type="qcurve" smooth="yes"/>
      <point x="669" y="1464"/>
      <point x="733" y="1385"/>
      <point x="733" y="1313" type="qcurve" smooth="yes"/>
      <point x="733" y="1198"/>
      <point x="530" y="897"/>
      <point x="457" y="897" type="qcurve" smooth="yes"/>
      <point x="433" y="897"/>
      <point x="395" y="933"/>
      <point x="395" y="954" type="qcurve" smooth="yes"/>
      <point x="395" y="988"/>
      <point x="427" y="1025"/>
      <point x="463" y="1051" type="qcurve" smooth="yes"/>
      <point x="524" y="1094"/>
    </contour>
    <contour>
      <point x="1020" y="1165" type="qcurve"/>
      <point x="969" y="1171"/>
      <point x="905" y="1242"/>
      <point x="905" y="1290" type="qcurve" smooth="yes"/>
      <point x="905" y="1359"/>
      <point x="1016" y="1464"/>
      <point x="1083" y="1464" type="qcurve" smooth="yes"/>
      <point x="1140" y="1464"/>
      <point x="1204" y="1385"/>
      <point x="1204" y="1313" type="qcurve" smooth="yes"/>
      <point x="1204" y="1251"/>
      <point x="1127" y="1069"/>
      <point x="980" y="897"/>
      <point x="928" y="897" type="qcurve" smooth="yes"/>
      <point x="904" y="897"/>
      <point x="866" y="933"/>
      <point x="866" y="954" type="qcurve" smooth="yes"/>
      <point x="866" y="988"/>
      <point x="898" y="1025"/>
      <point x="934" y="1051" type="qcurve" smooth="yes"/>
      <point x="995" y="1094"/>
    </contour>
  </outline>
</glyph>
<glyph name="bullet" format="1">
  <advance width="950"/>
  <unicode hex="2022"/>
  <outline>
    <contour>
      <point x="766" y="567" type="qcurve" smooth="yes"/>
      <point x="766" y="455"/>
      <point x="591" y="287"/>
      <point x="479" y="287" type="qcurve" smooth="yes"/>
      <point x="393" y="287"/>
      <point x="274" y="407"/>
      <point x="274" y="494" type="qcurve" smooth="yes"/>
      <point x="274" y="605"/>
      <point x="455" y="776"/>
      <point x="565" y="776" type="qcurve" smooth="yes"/>
      <point x="650" y="776"/>
      <point x="766" y="656"/>
    </contour>
  </outline>
</glyph>
<glyph name="uni25CC" format="1">
  <advance width="1229"/>
  <unicode hex="25CC"/>
  <outline>
    <contour>
      <point x="615" y="-100" type="move" name="Anchor-1"/>
    </contour>
    <contour>
      <point x="615" y="1400" type="move" name="Anchor-0"/>
    </contour>
    <contour>
      <point x="614" y="1028" type="qcurve" smooth="yes"/>
      <point x="602" y="1028"/>
      <point x="584" y="1047"/>
      <point x="584" y="1059" type="qcurve" smooth="yes"/>
      <point x="584" y="1071"/>
      <point x="602" y="1090"/>
      <point x="614" y="1090" type="qcurve" smooth="yes"/>
      <point x="627" y="1090"/>
      <point x="645" y="1071"/>
      <point x="645" y="1059" type="qcurve" smooth="yes"/>
      <point x="645" y="1047"/>
      <point x="627" y="1028"/>
    </contour>
    <contour>
      <point x="430" y="987" type="qcurve" smooth="yes"/>
      <point x="418" y="987"/>
      <point x="399" y="1006"/>
      <point x="399" y="1018" type="qcurve" smooth="yes"/>
      <point x="399" y="1030"/>
      <point x="418" y="1049"/>
      <point x="430" y="1049" type="qcurve" smooth="yes"/>
      <point x="442" y="1049"/>
      <point x="461" y="1030"/>
      <point x="461" y="1018" type="qcurve" smooth="yes"/>
      <point x="461" y="1006"/>
      <point x="442" y="987"/>
    </contour>
    <contour>
      <point x="805" y="983" type="qcurve" smooth="yes"/>
      <point x="793" y="983"/>
      <point x="774" y="1002"/>
      <point x="774" y="1014" type="qcurve" smooth="yes"/>
      <point x="774" y="1026"/>
      <point x="793" y="1044"/>
      <point x="805" y="1044" type="qcurve" smooth="yes"/>
      <point x="817" y="1044"/>
      <point x="836" y="1026"/>
      <point x="836" y="1014" type="qcurve" smooth="yes"/>
      <point x="836" y="1001"/>
      <point x="817" y="983"/>
    </contour>
    <contour>
      <point x="289" y="887" type="qcurve" smooth="yes"/>
      <point x="277" y="887"/>
      <point x="258" y="905"/>
      <point x="258" y="918" type="qcurve" smooth="yes"/>
      <point x="258" y="930"/>
      <point x="276" y="948"/>
      <point x="289" y="948" type="qcurve" smooth="yes"/>
      <point x="301" y="948"/>
      <point x="319" y="930"/>
      <point x="319" y="918" type="qcurve" smooth="yes"/>
      <point x="319" y="905"/>
      <point x="301" y="887"/>
    </contour>
    <contour>
      <point x="961" y="870" type="qcurve" smooth="yes"/>
      <point x="948" y="870"/>
      <point x="930" y="889"/>
      <point x="930" y="901" type="qcurve" smooth="yes"/>
      <point x="930" y="913"/>
      <point x="948" y="932"/>
      <point x="961" y="932" type="qcurve" smooth="yes"/>
      <point x="973" y="932"/>
      <point x="991" y="913"/>
      <point x="991" y="901" type="qcurve" smooth="yes"/>
      <point x="991" y="889"/>
      <point x="973" y="870"/>
    </contour>
    <contour>
      <point x="188" y="741" type="qcurve" smooth="yes"/>
      <point x="176" y="741"/>
      <point x="158" y="760"/>
      <point x="158" y="772" type="qcurve" smooth="yes"/>
      <point x="158" y="784"/>
      <point x="176" y="803"/>
      <point x="188" y="803" type="qcurve" smooth="yes"/>
      <point x="201" y="803"/>
      <point x="219" y="784"/>
      <point x="219" y="772" type="qcurve" smooth="yes"/>
      <point x="219" y="760"/>
      <point x="201" y="741"/>
    </contour>
    <contour>
      <point x="1051" y="721" type="qcurve" smooth="yes"/>
      <point x="1038" y="721"/>
      <point x="1020" y="739"/>
      <point x="1020" y="752" type="qcurve" smooth="yes"/>
      <point x="1020" y="764"/>
      <point x="1038" y="782"/>
      <point x="1051" y="782" type="qcurve" smooth="yes"/>
      <point x="1063" y="782"/>
      <point x="1081" y="764"/>
      <point x="1081" y="752" type="qcurve" smooth="yes"/>
      <point x="1081" y="739"/>
      <point x="1063" y="721"/>
    </contour>
    <contour>
      <point x="1075" y="563" type="qcurve" smooth="yes"/>
      <point x="1063" y="563"/>
      <point x="1044" y="582"/>
      <point x="1044" y="594" type="qcurve" smooth="yes"/>
      <point x="1044" y="606"/>
      <point x="1063" y="625"/>
      <point x="1075" y="625" type="qcurve" smooth="yes"/>
      <point x="1087" y="625"/>
      <point x="1106" y="606"/>
      <point x="1106" y="594" type="qcurve" smooth="yes"/>
      <point x="1106" y="582"/>
      <point x="1087" y="563"/>
    </contour>
    <contour>
      <point x="150" y="563" type="qcurve" smooth="yes"/>
      <point x="137" y="563"/>
      <point x="119" y="582"/>
      <point x="119" y="594" type="qcurve" smooth="yes"/>
      <point x="119" y="606"/>
      <point x="137" y="625"/>
      <point x="150" y="625" type="qcurve" smooth="yes"/>
      <point x="162" y="625"/>
      <point x="180" y="606"/>
      <point x="180" y="594" type="qcurve" smooth="yes"/>
      <point x="180" y="582"/>
      <point x="162" y="563"/>
    </contour>
    <contour>
      <point x="1040" y="383" type="qcurve" smooth="yes"/>
      <point x="1028" y="383"/>
      <point x="1010" y="401"/>
      <point x="1010" y="414" type="qcurve" smooth="yes"/>
      <point x="1010" y="426"/>
      <point x="1028" y="444"/>
      <point x="1040" y="444" type="qcurve" smooth="yes"/>
      <point x="1053" y="444"/>
      <point x="1071" y="426"/>
      <point x="1071" y="414" type="qcurve" smooth="yes"/>
      <point x="1071" y="401"/>
      <point x="1053" y="383"/>
    </contour>
    <contour>
      <point x="197" y="367" type="qcurve" smooth="yes"/>
      <point x="184" y="367"/>
      <point x="166" y="385"/>
      <point x="166" y="397" type="qcurve" smooth="yes"/>
      <point x="166" y="410"/>
      <point x="184" y="428"/>
      <point x="197" y="428" type="qcurve" smooth="yes"/>
      <point x="209" y="428"/>
      <point x="227" y="410"/>
      <point x="227" y="397" type="qcurve" smooth="yes"/>
      <point x="227" y="385"/>
      <point x="209" y="367"/>
    </contour>
    <contour>
      <point x="942" y="238" type="qcurve" smooth="yes"/>
      <point x="930" y="238"/>
      <point x="911" y="256"/>
      <point x="911" y="268" type="qcurve" smooth="yes"/>
      <point x="911" y="281"/>
      <point x="930" y="299"/>
      <point x="942" y="299" type="qcurve" smooth="yes"/>
      <point x="954" y="299"/>
      <point x="973" y="281"/>
      <point x="973" y="268" type="qcurve" smooth="yes"/>
      <point x="973" y="256"/>
      <point x="954" y="238"/>
    </contour>
    <contour>
      <point x="305" y="219" type="qcurve" smooth="yes"/>
      <point x="293" y="219"/>
      <point x="274" y="238"/>
      <point x="274" y="250" type="qcurve" smooth="yes"/>
      <point x="274" y="262"/>
      <point x="293" y="281"/>
      <point x="305" y="281" type="qcurve" smooth="yes"/>
      <point x="317" y="281"/>
      <point x="336" y="262"/>
      <point x="336" y="250" type="qcurve" smooth="yes"/>
      <point x="336" y="238"/>
      <point x="317" y="219"/>
    </contour>
    <contour>
      <point x="799" y="137" type="qcurve" smooth="yes"/>
      <point x="787" y="137"/>
      <point x="768" y="156"/>
      <point x="768" y="168" type="qcurve" smooth="yes"/>
      <point x="768" y="180"/>
      <point x="786" y="199"/>
      <point x="799" y="199" type="qcurve" smooth="yes"/>
      <point x="811" y="199"/>
      <point x="829" y="180"/>
      <point x="829" y="168" type="qcurve" smooth="yes"/>
      <point x="829" y="156"/>
      <point x="811" y="137"/>
    </contour>
    <contour>
      <point x="451" y="129" type="qcurve" smooth="yes"/>
      <point x="438" y="129"/>
      <point x="420" y="148"/>
      <point x="420" y="160" type="qcurve" smooth="yes"/>
      <point x="420" y="172"/>
      <point x="438" y="190"/>
      <point x="451" y="190" type="qcurve" smooth="yes"/>
      <point x="463" y="190"/>
      <point x="481" y="172"/>
      <point x="481" y="160" type="qcurve" smooth="yes"/>
      <point x="481" y="148"/>
      <point x="463" y="129"/>
    </contour>
    <contour>
      <point x="614" y="100" type="qcurve" smooth="yes"/>
      <point x="602" y="100"/>
      <point x="584" y="119"/>
      <point x="584" y="131" type="qcurve" smooth="yes"/>
      <point x="584" y="143"/>
      <point x="602" y="162"/>
      <point x="614" y="162" type="qcurve" smooth="yes"/>
      <point x="627" y="162"/>
      <point x="645" y="143"/>
      <point x="645" y="131" type="qcurve" smooth="yes"/>
      <point x="645" y="119"/>
      <point x="627" y="100"/>
    </contour>
    <contour>
      <point x="599" y="1309" type="move" smooth="yes"/>
    </contour>
    <contour>
      <point x="924" y="-82" type="move" smooth="yes"/>
    </contour>
  </outline>
</glyph>
<glyph name="uniFDF2" format="1">
  <advance width="1677"/>
  <unicode hex="FDF2"/>
  <outline>
    <contour>
      <point x="834" y="1464" type="qcurve" smooth="yes"/>
      <point x="872" y="1464"/>
      <point x="872" y="1436" type="qcurve" smooth="yes"/>
      <point x="872" y="1246"/>
      <point x="858" y="1155"/>
      <point x="823" y="1155" type="qcurve" smooth="yes"/>
      <point x="784" y="1155"/>
      <point x="784" y="1198" type="qcurve" smooth="yes"/>
      <point x="793" y="1409" type="line" smooth="yes"/>
      <point x="793" y="1464"/>
    </contour>
    <contour>
      <point x="1581" y="1274" type="qcurve" smooth="yes"/>
      <point x="1647" y="1274"/>
      <point x="1647" y="1198" type="qcurve" smooth="yes"/>
      <point x="1647" y="864"/>
      <point x="1596" y="337"/>
      <point x="1537" y="256"/>
      <point x="1497" y="256" type="qcurve" smooth="yes"/>
      <point x="1467" y="256"/>
      <point x="1427" y="295"/>
      <point x="1427" y="322" type="qcurve" smooth="yes"/>
      <point x="1427" y="351"/>
      <point x="1444" y="410" type="qcurve" smooth="yes"/>
      <point x="1497" y="601"/>
      <point x="1497" y="1147" type="qcurve" smooth="yes"/>
      <point x="1497" y="1202"/>
      <point x="1541" y="1274"/>
    </contour>
    <contour>
      <point x="807" y="846" type="qcurve"/>
      <point x="779" y="776"/>
      <point x="705" y="776" type="qcurve" smooth="yes"/>
      <point x="665" y="776"/>
      <point x="606" y="852"/>
      <point x="606" y="903" type="qcurve" smooth="yes"/>
      <point x="606" y="949"/>
      <point x="636" y="1019"/>
      <point x="660" y="1049"/>
      <point x="682" y="1049" type="qcurve" smooth="yes"/>
      <point x="705" y="1049"/>
      <point x="705" y="1024" type="qcurve" smooth="yes"/>
      <point x="705" y="1008"/>
      <point x="688" y="979" type="qcurve" smooth="yes"/>
      <point x="674" y="953"/>
      <point x="674" y="913" type="qcurve" smooth="yes"/>
      <point x="674" y="868"/>
      <point x="719" y="868" type="qcurve" smooth="yes"/>
      <point x="743" y="868"/>
      <point x="774" y="897"/>
      <point x="774" y="946"/>
      <point x="777" y="992"/>
      <point x="791" y="1024"/>
      <point x="807" y="1024" type="qcurve" smooth="yes"/>
      <point x="840" y="1024"/>
      <point x="840" y="1001" type="qcurve" smooth="yes"/>
      <point x="840" y="881"/>
      <point x="897" y="881" type="qcurve" smooth="yes"/>
      <point x="944" y="881"/>
      <point x="944" y="940" type="qcurve" smooth="yes"/>
      <point x="944" y="967"/>
      <point x="933" y="1010" type="qcurve" smooth="yes"/>
      <point x="926" y="1036"/>
      <point x="926" y="1047" type="qcurve" smooth="yes"/>
      <point x="926" y="1077"/>
      <point x="952" y="1077" type="qcurve" smooth="yes"/>
      <point x="967" y="1077"/>
      <point x="981" y="1048"/>
      <point x="997" y="963"/>
      <point x="997" y="936" type="qcurve" smooth="yes"/>
      <point x="997" y="788"/>
      <point x="891" y="788" type="qcurve" smooth="yes"/>
      <point x="831" y="788"/>
    </contour>
    <contour>
      <point x="389" y="166" type="qcurve"/>
      <point x="325" y="89"/>
      <point x="143" y="-8"/>
      <point x="74" y="-8" type="qcurve" smooth="yes"/>
      <point x="45" y="-8"/>
      <point x="10" y="33"/>
      <point x="10" y="61" type="qcurve" smooth="yes"/>
      <point x="10" y="92"/>
      <point x="43" y="140"/>
      <point x="70" y="147" type="qcurve" smooth="yes"/>
      <point x="334" y="228"/>
      <point x="371" y="477" type="qcurve" smooth="yes"/>
      <point x="374" y="504"/>
      <point x="414" y="541"/>
      <point x="440" y="541" type="qcurve" smooth="yes"/>
      <point x="514" y="541"/>
      <point x="514" y="481" type="qcurve" smooth="yes"/>
      <point x="514" y="281"/>
      <point x="606" y="281" type="qcurve" smooth="yes"/>
      <point x="663" y="281"/>
      <point x="735" y="445"/>
      <point x="735" y="543" type="qcurve" smooth="yes"/>
      <point x="735" y="649"/>
      <point x="807" y="649" type="qcurve" smooth="yes"/>
      <point x="848" y="649"/>
      <point x="876" y="618"/>
      <point x="882" y="567" type="qcurve" smooth="yes"/>
      <point x="897" y="410"/>
      <point x="952" y="315"/>
      <point x="995" y="315" type="qcurve" smooth="yes"/>
      <point x="1056" y="315"/>
      <point x="1118" y="412"/>
      <point x="1143" y="725"/>
      <point x="1143" y="883" type="qcurve" smooth="yes"/>
      <point x="1143" y="963"/>
      <point x="1212" y="963" type="qcurve" smooth="yes"/>
      <point x="1237" y="963"/>
      <point x="1286" y="928"/>
      <point x="1286" y="901" type="qcurve" smooth="yes"/>
      <point x="1286" y="723"/>
      <point x="1257" y="309"/>
      <point x="1089" y="66"/>
      <point x="973" y="66" type="qcurve" smooth="yes"/>
      <point x="903" y="66"/>
      <point x="792" y="160"/>
      <point x="772" y="238" type="qcurve"/>
      <point x="699" y="31"/>
      <point x="563" y="31" type="qcurve" smooth="yes"/>
      <point x="430" y="31"/>
    </contour>
  </outline>
</glyph>
<glyph name="DotAbove" format="1">
  <advance width="682"/>
  <outline>
    <contour>
      <point x="238" y="94" type="qcurve" smooth="yes"/>
      <point x="238" y="133"/>
      <point x="305" y="205"/>
      <point x="344" y="205" type="qcurve" smooth="yes"/>
      <point x="389" y="205"/>
      <point x="442" y="151"/>
      <point x="442" y="106" type="qcurve" smooth="yes"/>
      <point x="442" y="65"/>
      <point x="378" y="0"/>
      <point x="338" y="0" type="qcurve" smooth="yes"/>
      <point x="292" y="0"/>
      <point x="238" y="52"/>
    </contour>
  </outline>
</glyph>
<glyph name="ThreeDots" format="1">
  <advance width="682"/>
  <outline>
    <contour>
      <point x="260" y="354" type="qcurve" smooth="yes"/>
      <point x="260" y="393"/>
      <point x="328" y="465"/>
      <point x="367" y="465" type="qcurve" smooth="yes"/>
      <point x="411" y="465"/>
      <point x="465" y="411"/>
      <point x="465" y="367" type="qcurve" smooth="yes"/>
      <point x="465" y="326"/>
      <point x="400" y="260"/>
      <point x="360" y="260" type="qcurve" smooth="yes"/>
      <point x="314" y="260"/>
      <point x="260" y="312"/>
    </contour>
    <contour>
      <point x="33" y="94" type="qcurve" smooth="yes"/>
      <point x="33" y="133"/>
      <point x="100" y="205"/>
      <point x="139" y="205" type="qcurve" smooth="yes"/>
      <point x="184" y="205"/>
      <point x="238" y="151"/>
      <point x="238" y="106" type="qcurve" smooth="yes"/>
      <point x="238" y="65"/>
      <point x="173" y="0"/>
      <point x="133" y="0" type="qcurve" smooth="yes"/>
      <point x="87" y="0"/>
      <point x="33" y="52"/>
    </contour>
    <contour>
      <point x="442" y="94" type="qcurve" smooth="yes"/>
      <point x="442" y="133"/>
      <point x="510" y="205"/>
      <point x="549" y="205" type="qcurve" smooth="yes"/>
      <point x="594" y="205"/>
      <point x="647" y="151"/>
      <point x="647" y="106" type="qcurve" smooth="yes"/>
      <point x="647" y="65"/>
      <point x="583" y="0"/>
      <point x="543" y="0" type="qcurve" smooth="yes"/>
      <point x="497" y="0"/>
      <point x="442" y="52"/>
    </contour>
  </outline>
</glyph>
<glyph name="TwoDots" format="1">
  <advance width="682"/>
  <outline>
    <contour>
      <point x="74" y="94" type="qcurve" smooth="yes"/>
      <point x="74" y="133"/>
      <point x="141" y="205"/>
      <point x="180" y="205" type="qcurve" smooth="yes"/>
      <point x="225" y="205"/>
      <point x="279" y="151"/>
      <point x="279" y="106" type="qcurve" smooth="yes"/>
      <point x="279" y="65"/>
      <point x="214" y="0"/>
      <point x="174" y="0" type="qcurve" smooth="yes"/>
      <point x="128" y="0"/>
      <point x="74" y="52"/>
    </contour>
    <contour>
      <point x="401" y="94" type="qcurve" smooth="yes"/>
      <point x="401" y="133"/>
      <point x="469" y="205"/>
      <point x="508" y="205" type="qcurve" smooth="yes"/>
      <point x="553" y="205"/>
      <point x="606" y="151"/>
      <point x="606" y="106" type="qcurve" smooth="yes"/>
      <point x="606" y="65"/>
      <point x="542" y="0"/>
      <point x="502" y="0" type="qcurve" smooth="yes"/>
      <point x="456" y="0"/>
      <point x="401" y="52"/>
    </contour>
  </outline>
</glyph>
<glyph name=".notdef" format="1">
  <advance width="2048"/>
  <outline>
    <contour>
      <point x="256" y="0" type="line"/>
      <point x="256" y="1536" type="line"/>
      <point x="1792" y="1536" type="line"/>
      <point x="1792" y="0" type="line"/>
    </contour>
    <contour>
      <point x="384" y="128" type="line"/>
      <point x="1664" y="128" type="line"/>
      <point x="1664" y="1408" type="line"/>
      <point x="384" y="1408" type="line"/>
    </contour>
  </outline>
</glyph>
<glyph name="uni07A6" format="1">
  <advance width="600"/>
  <outline>
    <contour>
      <point x="310" y="969" type="move" name="_Anchor-0"/>
    </contour>
    <contour>
      <point x="25" y="1038" type="qcurve" smooth="yes"/>
      <point x="25" y="1068"/>
      <point x="57" y="1102"/>
      <point x="102" y="1122" type="qcurve" smooth="yes"/>
      <point x="238" y="1181"/>
      <point x="431" y="1382" type="qcurve" smooth="yes"/>
      <point x="473" y="1425"/>
      <point x="516" y="1425" type="qcurve" smooth="yes"/>
      <point x="575" y="1425"/>
      <point x="575" y="1362" type="qcurve" smooth="yes"/>
      <point x="575" y="1305"/>
      <point x="207" y="969"/>
      <point x="106" y="969" type="qcurve" smooth="yes"/>
      <point x="69" y="969"/>
      <point x="25" y="1007"/>
    </contour>
    <contour>
      <point x="196" y="969" type="move" smooth="yes"/>
    </contour>
  </outline>
</glyph>
<glyph name="uni07A7" format="1">
  <advance width="887"/>
  <outline>
    <contour>
      <point x="445" y="969" type="move" name="_Anchor-0"/>
    </contour>
    <contour>
      <point x="25" y="1124" type="qcurve" smooth="yes"/>
      <point x="25" y="1154"/>
      <point x="57" y="1188"/>
      <point x="102" y="1208" type="qcurve" smooth="yes"/>
      <point x="241" y="1270"/>
      <point x="394" y="1423" type="qcurve" smooth="yes"/>
      <point x="434" y="1464"/>
      <point x="475" y="1464" type="qcurve" smooth="yes"/>
      <point x="535" y="1464"/>
      <point x="535" y="1401" type="qcurve" smooth="yes"/>
      <point x="535" y="1345"/>
      <point x="198" y="1055"/>
      <point x="106" y="1055" type="qcurve" smooth="yes"/>
      <point x="69" y="1055"/>
      <point x="25" y="1093"/>
    </contour>
    <contour>
      <point x="352" y="1038" type="qcurve" smooth="yes"/>
      <point x="352" y="1069"/>
      <point x="386" y="1103"/>
      <point x="430" y="1122" type="qcurve" smooth="yes"/>
      <point x="568" y="1184"/>
      <point x="721" y="1337" type="qcurve" smooth="yes"/>
      <point x="762" y="1378"/>
      <point x="803" y="1378" type="qcurve" smooth="yes"/>
      <point x="862" y="1378"/>
      <point x="862" y="1315" type="qcurve" smooth="yes"/>
      <point x="862" y="1259"/>
      <point x="526" y="969"/>
      <point x="434" y="969" type="qcurve" smooth="yes"/>
      <point x="397" y="969"/>
      <point x="352" y="1007"/>
    </contour>
    <contour>
      <point x="445" y="969" type="move" smooth="yes"/>
    </contour>
  </outline>
</glyph>
<glyph name="uni07A8" format="1">
  <advance width="618"/>
  <outline>
    <contour>
      <point x="315" y="0" type="move" name="_Anchor-1"/>
    </contour>
    <contour>
      <point x="25" y="-397" type="qcurve" smooth="yes"/>
      <point x="25" y="-335"/>
      <point x="102" y="-307" type="qcurve" smooth="yes"/>
      <point x="262" y="-250"/>
      <point x="444" y="-139" type="qcurve" smooth="yes"/>
      <point x="492" y="-111"/>
      <point x="532" y="-111" type="qcurve" smooth="yes"/>
      <point x="558" y="-111"/>
      <point x="594" y="-146"/>
      <point x="594" y="-168" type="qcurve" smooth="yes"/>
      <point x="594" y="-227"/>
      <point x="190" y="-461"/>
      <point x="102" y="-461" type="qcurve" smooth="yes"/>
      <point x="68" y="-461"/>
      <point x="25" y="-424"/>
    </contour>
    <contour>
      <point x="822" y="-69" type="move" smooth="yes"/>
    </contour>
  </outline>
</glyph>
<glyph name="uni07A9" format="1">
  <advance width="1038"/>
  <outline>
    <contour>
      <point x="510" y="0" type="move" name="_Anchor-1"/>
    </contour>
    <contour>
      <point x="14" y="-398" type="qcurve" smooth="yes"/>
      <point x="14" y="-336"/>
      <point x="92" y="-308" type="qcurve" smooth="yes"/>
      <point x="251" y="-251"/>
      <point x="434" y="-140" type="qcurve" smooth="yes"/>
      <point x="481" y="-111"/>
      <point x="522" y="-111" type="qcurve" smooth="yes"/>
      <point x="547" y="-111"/>
      <point x="584" y="-146"/>
      <point x="584" y="-169" type="qcurve" smooth="yes"/>
      <point x="584" y="-229"/>
      <point x="178" y="-462"/>
      <point x="92" y="-462" type="qcurve" smooth="yes"/>
      <point x="58" y="-462"/>
      <point x="14" y="-425"/>
    </contour>
    <contour>
      <point x="455" y="-453" type="qcurve" smooth="yes"/>
      <point x="455" y="-391"/>
      <point x="532" y="-363" type="qcurve" smooth="yes"/>
      <point x="692" y="-306"/>
      <point x="874" y="-195" type="qcurve" smooth="yes"/>
      <point x="922" y="-167"/>
      <point x="963" y="-167" type="qcurve" smooth="yes"/>
      <point x="988" y="-167"/>
      <point x="1024" y="-202"/>
      <point x="1024" y="-224" type="qcurve" smooth="yes"/>
      <point x="1024" y="-283"/>
      <point x="620" y="-517"/>
      <point x="532" y="-517" type="qcurve" smooth="yes"/>
      <point x="498" y="-517"/>
      <point x="455" y="-480"/>
    </contour>
    <contour>
      <point x="961" y="-125" type="move" smooth="yes"/>
    </contour>
  </outline>
</glyph>
<glyph name="uni07AA" format="1">
  <advance width="526"/>
  <outline>
    <contour>
      <point x="250" y="969" type="move" name="_Anchor-0"/>
    </contour>
    <contour>
      <point x="350" y="1257" type="qcurve"/>
      <point x="286" y="1308"/>
      <point x="139" y="1323" type="qcurve" smooth="yes"/>
      <point x="61" y="1331"/>
      <point x="61" y="1391" type="qcurve" smooth="yes"/>
      <point x="61" y="1422"/>
      <point x="106" y="1464"/>
      <point x="143" y="1464" type="qcurve" smooth="yes"/>
      <point x="236" y="1464"/>
      <point x="502" y="1363"/>
      <point x="502" y="1278" type="qcurve" smooth="yes"/>
      <point x="502" y="1198"/>
      <point x="181" y="969"/>
      <point x="106" y="969" type="qcurve" smooth="yes"/>
      <point x="25" y="969"/>
      <point x="25" y="1034" type="qcurve" smooth="yes"/>
      <point x="25" y="1069"/>
      <point x="61" y="1104"/>
      <point x="102" y="1118" type="qcurve" smooth="yes"/>
      <point x="288" y="1186"/>
    </contour>
    <contour>
      <point x="137" y="969" type="move" smooth="yes"/>
    </contour>
  </outline>
</glyph>
<glyph name="uni07AB" format="1">
  <advance width="1018"/>
  <outline>
    <contour>
      <point x="500" y="969" type="move" name="_Anchor-0"/>
    </contour>
    <contour>
      <point x="350" y="1257" type="qcurve"/>
      <point x="286" y="1308"/>
      <point x="139" y="1323" type="qcurve" smooth="yes"/>
      <point x="61" y="1331"/>
      <point x="61" y="1391" type="qcurve" smooth="yes"/>
      <point x="61" y="1422"/>
      <point x="106" y="1464"/>
      <point x="143" y="1464" type="qcurve" smooth="yes"/>
      <point x="236" y="1464"/>
      <point x="502" y="1363"/>
      <point x="502" y="1278" type="qcurve" smooth="yes"/>
      <point x="502" y="1198"/>
      <point x="181" y="969"/>
      <point x="106" y="969" type="qcurve" smooth="yes"/>
      <point x="25" y="969"/>
      <point x="25" y="1034" type="qcurve" smooth="yes"/>
      <point x="25" y="1069"/>
      <point x="61" y="1104"/>
      <point x="102" y="1118" type="qcurve" smooth="yes"/>
      <point x="288" y="1186"/>
    </contour>
    <contour>
      <point x="842" y="1257" type="qcurve"/>
      <point x="777" y="1308"/>
      <point x="631" y="1323" type="qcurve" smooth="yes"/>
      <point x="553" y="1331"/>
      <point x="553" y="1391" type="qcurve" smooth="yes"/>
      <point x="553" y="1423"/>
      <point x="598" y="1464"/>
      <point x="635" y="1464" type="qcurve" smooth="yes"/>
      <point x="727" y="1464"/>
      <point x="993" y="1363"/>
      <point x="993" y="1278" type="qcurve" smooth="yes"/>
      <point x="993" y="1198"/>
      <point x="672" y="969"/>
      <point x="598" y="969" type="qcurve" smooth="yes"/>
      <point x="516" y="969"/>
      <point x="516" y="1034" type="qcurve" smooth="yes"/>
      <point x="516" y="1069"/>
      <point x="553" y="1104"/>
      <point x="594" y="1118" type="qcurve" smooth="yes"/>
      <point x="779" y="1186"/>
    </contour>
    <contour>
      <point x="606" y="969" type="move" smooth="yes"/>
    </contour>
  </outline>
</glyph>
<glyph name="uni07AD" format="1">
  <advance width="1014"/>
  <outline>
    <contour>
      <point x="566" y="969" type="move" name="_Anchor-0"/>
    </contour>
    <contour>
      <point x="666" y="1176" type="qcurve"/>
      <point x="730" y="1125"/>
      <point x="877" y="1110" type="qcurve" smooth="yes"/>
      <point x="954" y="1102"/>
      <point x="954" y="1042" type="qcurve" smooth="yes"/>
      <point x="954" y="1011"/>
      <point x="910" y="969"/>
      <point x="872" y="969" type="qcurve" smooth="yes"/>
      <point x="780" y="969"/>
      <point x="514" y="1070"/>
      <point x="514" y="1155" type="qcurve" smooth="yes"/>
      <point x="514" y="1236"/>
      <point x="835" y="1464"/>
      <point x="909" y="1464" type="qcurve" smooth="yes"/>
      <point x="991" y="1464"/>
      <point x="991" y="1399" type="qcurve" smooth="yes"/>
      <point x="991" y="1368"/>
      <point x="959" y="1331"/>
      <point x="913" y="1315" type="qcurve" smooth="yes"/>
      <point x="728" y="1247"/>
    </contour>
    <contour>
      <point x="174" y="1176" type="qcurve"/>
      <point x="238" y="1125"/>
      <point x="385" y="1110" type="qcurve" smooth="yes"/>
      <point x="463" y="1102"/>
      <point x="463" y="1042" type="qcurve" smooth="yes"/>
      <point x="463" y="1010"/>
      <point x="418" y="969"/>
      <point x="381" y="969" type="qcurve" smooth="yes"/>
      <point x="288" y="969"/>
      <point x="23" y="1070"/>
      <point x="23" y="1155" type="qcurve" smooth="yes"/>
      <point x="23" y="1236"/>
      <point x="343" y="1464"/>
      <point x="418" y="1464" type="qcurve" smooth="yes"/>
      <point x="500" y="1464"/>
      <point x="500" y="1399" type="qcurve" smooth="yes"/>
      <point x="500" y="1364"/>
      <point x="463" y="1329"/>
      <point x="422" y="1315" type="qcurve" smooth="yes"/>
      <point x="236" y="1247"/>
    </contour>
    <contour>
      <point x="566" y="969" type="move" smooth="yes"/>
    </contour>
  </outline>
</glyph>
<glyph name="uni07AE" format="1">
  <advance width="934"/>
  <outline>
    <contour>
      <point x="505" y="969" type="move" name="_Anchor-0"/>
    </contour>
    <contour>
      <point x="432" y="1157" type="line"/>
      <point x="376" y="1101"/>
      <point x="162" y="969"/>
      <point x="106" y="969" type="qcurve" smooth="yes"/>
      <point x="25" y="969"/>
      <point x="25" y="1034" type="qcurve" smooth="yes"/>
      <point x="25" y="1069"/>
      <point x="61" y="1104"/>
      <point x="102" y="1118" type="qcurve" smooth="yes"/>
      <point x="288" y="1186"/>
      <point x="350" y="1257" type="qcurve"/>
      <point x="286" y="1308"/>
      <point x="139" y="1323" type="qcurve" smooth="yes"/>
      <point x="61" y="1331"/>
      <point x="61" y="1391" type="qcurve" smooth="yes"/>
      <point x="61" y="1422"/>
      <point x="106" y="1464"/>
      <point x="143" y="1464" type="qcurve" smooth="yes"/>
      <point x="236" y="1464"/>
      <point x="502" y="1363"/>
      <point x="502" y="1278" type="qcurve" smooth="yes"/>
      <point x="502" y="1276" type="line"/>
      <point x="565" y="1337"/>
      <point x="772" y="1464"/>
      <point x="827" y="1464" type="qcurve" smooth="yes"/>
      <point x="909" y="1464"/>
      <point x="909" y="1399" type="qcurve" smooth="yes"/>
      <point x="909" y="1368"/>
      <point x="877" y="1331"/>
      <point x="831" y="1315" type="qcurve" smooth="yes"/>
      <point x="646" y="1247"/>
      <point x="584" y="1176" type="qcurve"/>
      <point x="648" y="1125"/>
      <point x="795" y="1110" type="qcurve" smooth="yes"/>
      <point x="872" y="1102"/>
      <point x="872" y="1042" type="qcurve" smooth="yes"/>
      <point x="872" y="1010"/>
      <point x="827" y="969"/>
      <point x="791" y="969" type="qcurve" smooth="yes"/>
      <point x="698" y="969"/>
      <point x="432" y="1070"/>
      <point x="432" y="1155" type="qcurve" smooth="yes"/>
    </contour>
    <contour>
      <point x="505" y="969" type="move" smooth="yes"/>
    </contour>
  </outline>
</glyph>
<glyph name="uni07AF" format="1">
  <advance width="1008"/>
  <outline>
    <contour>
      <point x="544" y="969" type="move" name="_Anchor-0"/>
    </contour>
    <contour>
      <point x="750" y="1651" type="qcurve" smooth="yes"/>
      <point x="621" y="1651"/>
      <point x="188" y="1343"/>
      <point x="188" y="1243" type="qcurve" smooth="yes"/>
      <point x="188" y="1195"/>
      <point x="287" y="1137"/>
      <point x="358" y="1126" type="qcurve" smooth="yes"/>
      <point x="436" y="1115"/>
      <point x="436" y="1042" type="qcurve" smooth="yes"/>
      <point x="436" y="1010"/>
      <point x="391" y="969"/>
      <point x="354" y="969" type="qcurve" smooth="yes"/>
      <point x="246" y="969"/>
      <point x="37" y="1132"/>
      <point x="37" y="1249" type="qcurve" smooth="yes"/>
      <point x="37" y="1348"/>
      <point x="310" y="1612"/>
      <point x="654" y="1792"/>
      <point x="760" y="1792" type="qcurve" smooth="yes"/>
      <point x="855" y="1792"/>
      <point x="971" y="1690"/>
      <point x="971" y="1595" type="qcurve" smooth="yes"/>
      <point x="971" y="1545"/>
      <point x="925" y="1396"/>
      <point x="791" y="1239"/>
      <point x="729" y="1239" type="qcurve" smooth="yes"/>
      <point x="702" y="1239"/>
      <point x="657" y="1281"/>
      <point x="657" y="1311" type="qcurve" smooth="yes"/>
      <point x="657" y="1340"/>
      <point x="679" y="1387"/>
      <point x="717" y="1419" type="qcurve" smooth="yes"/>
      <point x="819" y="1508"/>
      <point x="819" y="1585" type="qcurve" smooth="yes"/>
      <point x="819" y="1651"/>
    </contour>
    <contour>
      <point x="544" y="969" type="move" smooth="yes"/>
    </contour>
  </outline>
</glyph>
<glyph name="uni07B0" format="1">
  <advance width="635"/>
  <outline>
    <contour>
      <point x="350" y="969" type="move" name="_Anchor-0"/>
    </contour>
    <contour>
      <point x="598" y="1286" type="qcurve" smooth="yes"/>
      <point x="598" y="1184"/>
      <point x="404" y="969"/>
      <point x="274" y="969" type="qcurve" smooth="yes"/>
      <point x="171" y="969"/>
      <point x="37" y="1090"/>
      <point x="37" y="1184" type="qcurve" smooth="yes"/>
      <point x="37" y="1277"/>
      <point x="278" y="1464"/>
      <point x="414" y="1464" type="qcurve" smooth="yes"/>
      <point x="498" y="1464"/>
      <point x="598" y="1371"/>
    </contour>
    <contour>
      <point x="279" y="1108" type="qcurve" smooth="yes"/>
      <point x="329" y="1108"/>
      <point x="446" y="1242"/>
      <point x="446" y="1282" type="qcurve" smooth="yes"/>
      <point x="446" y="1329"/>
      <point x="403" y="1329" type="qcurve" smooth="yes"/>
      <point x="338" y="1329"/>
      <point x="188" y="1218"/>
      <point x="188" y="1178" type="qcurve" smooth="yes"/>
      <point x="188" y="1150"/>
      <point x="239" y="1108"/>
    </contour>
    <contour>
      <point x="401" y="969" type="move" smooth="yes"/>
    </contour>
  </outline>
</glyph>
